<svg width="58" height="60" viewBox="0 0 58 60" fill="none" xmlns="http://www.w3.org/2000/svg">
<g opacity="0.18">
<g filter="url(#filter0_f_8009_6857)">
<path d="M54.043 55C54.043 55 42.6166 57 28.5215 57C14.4264 57 3 55 3 55C3 55 14.4264 53 28.5215 53C42.6166 53 54.043 55 54.043 55Z" fill="black" fill-opacity="0.7"/>
</g>
<g filter="url(#filter1_f_8009_6857)">
<path d="M44.8391 55.0002C44.8391 55.0002 37.5337 55.6668 28.5221 55.6668C19.5105 55.6668 12.2051 55.0002 12.2051 55.0002C12.2051 55.0002 19.5105 54.3335 28.5221 54.3335C37.5337 54.3335 44.8391 55.0002 44.8391 55.0002Z" fill="black" fill-opacity="0.9"/>
</g>
<g filter="url(#filter2_f_8009_6857)">
<path d="M41.4907 54.9998C41.4907 54.9998 35.6838 54.3332 28.5207 54.3332C21.3576 54.3332 15.5508 54.9998 15.5508 54.9998C15.5508 54.9998 21.3576 55.6665 28.5207 55.6665C35.6838 55.6665 41.4907 54.9998 41.4907 54.9998Z" fill="black" fill-opacity="0.6"/>
</g>
<g filter="url(#filter3_f_8009_6857)">
<path d="M38.9788 55.0002C38.9788 55.0002 34.2959 55.6668 28.5192 55.6668C22.7425 55.6668 18.0596 55.0002 18.0596 55.0002C18.0596 55.0002 22.7425 54.3335 28.5192 54.3335C34.2959 54.3335 38.9788 55.0002 38.9788 55.0002Z" fill="black"/>
</g>
</g>
<circle cx="29.6133" cy="27" r="27" fill="url(#paint0_linear_8009_6857)"/>
<path d="M29.6133 13C30.8742 20.145 36.4682 25.7391 43.6133 27C36.4682 28.2609 30.8742 33.855 29.6133 41C28.3524 33.855 22.7583 28.2609 15.6133 27C22.7583 25.7391 28.3524 20.145 29.6133 13Z" fill="url(#paint1_linear_8009_6857)"/>
<path d="M20.0352 33.6315C20.3006 35.1356 21.4776 36.3139 22.9818 36.5794C21.4778 36.845 20.3007 38.0221 20.0352 39.526C19.7697 38.0219 18.5914 36.8449 17.0872 36.5794C18.5915 36.314 19.7697 35.1357 20.0352 33.6315Z" fill="url(#paint2_linear_8009_6857)"/>
<path d="M20.0339 13C20.432 15.2563 22.1994 17.0224 24.4557 17.4206C22.1994 17.8187 20.432 19.5861 20.0339 21.8424C19.6357 19.5861 17.8696 17.8187 15.6133 17.4206C17.8695 17.0224 19.6357 15.2563 20.0339 13Z" fill="url(#paint3_linear_8009_6857)"/>
<defs>
<filter id="filter0_f_8009_6857" x="0" y="50" width="57.043" height="10" filterUnits="userSpaceOnUse" color-interpolation-filters="sRGB">
<feFlood flood-opacity="0" result="BackgroundImageFix"/>
<feBlend mode="normal" in="SourceGraphic" in2="BackgroundImageFix" result="shape"/>
<feGaussianBlur stdDeviation="1.5" result="effect1_foregroundBlur_8009_6857"/>
</filter>
<filter id="filter1_f_8009_6857" x="11.2051" y="53.3335" width="34.6338" height="3.33337" filterUnits="userSpaceOnUse" color-interpolation-filters="sRGB">
<feFlood flood-opacity="0" result="BackgroundImageFix"/>
<feBlend mode="normal" in="SourceGraphic" in2="BackgroundImageFix" result="shape"/>
<feGaussianBlur stdDeviation="0.5" result="effect1_foregroundBlur_8009_6857"/>
</filter>
<filter id="filter2_f_8009_6857" x="12.5508" y="51.3331" width="31.9395" height="7.33337" filterUnits="userSpaceOnUse" color-interpolation-filters="sRGB">
<feFlood flood-opacity="0" result="BackgroundImageFix"/>
<feBlend mode="normal" in="SourceGraphic" in2="BackgroundImageFix" result="shape"/>
<feGaussianBlur stdDeviation="1.5" result="effect1_foregroundBlur_8009_6857"/>
</filter>
<filter id="filter3_f_8009_6857" x="17.6596" y="53.9335" width="21.7189" height="2.13337" filterUnits="userSpaceOnUse" color-interpolation-filters="sRGB">
<feFlood flood-opacity="0" result="BackgroundImageFix"/>
<feBlend mode="normal" in="SourceGraphic" in2="BackgroundImageFix" result="shape"/>
<feGaussianBlur stdDeviation="0.2" result="effect1_foregroundBlur_8009_6857"/>
</filter>
<linearGradient id="paint0_linear_8009_6857" x1="29.6133" y1="0" x2="29.6133" y2="54" gradientUnits="userSpaceOnUse">
<stop stop-color="#FFEAEA"/>
<stop offset="1" stop-color="#FFB4B4"/>
</linearGradient>
<linearGradient id="paint1_linear_8009_6857" x1="24" y1="14.4648" x2="36.5" y2="40.9648" gradientUnits="userSpaceOnUse">
<stop offset="0.293765" stop-color="#D02F2F"/>
<stop offset="1" stop-color="#FFA827"/>
</linearGradient>
<linearGradient id="paint2_linear_8009_6857" x1="24" y1="14.4648" x2="36.5" y2="40.9648" gradientUnits="userSpaceOnUse">
<stop offset="0.293765" stop-color="#D02F2F"/>
<stop offset="1" stop-color="#FFA827"/>
</linearGradient>
<linearGradient id="paint3_linear_8009_6857" x1="24" y1="14.4648" x2="36.5" y2="40.9648" gradientUnits="userSpaceOnUse">
<stop offset="0.293765" stop-color="#D02F2F"/>
<stop offset="1" stop-color="#FFA827"/>
</linearGradient>
</defs>
</svg>
