<svg width="44" height="44" viewBox="0 0 44 44" fill="none" xmlns="http://www.w3.org/2000/svg">
<path d="M0 22C0 9.84974 9.84974 0 22 0C34.1503 0 44 9.84974 44 22C44 34.1503 34.1503 44 22 44C9.84974 44 0 34.1503 0 22Z" fill="#D02F2F"/>
<path d="M23.375 11C24.3657 16.614 28.761 21.0093 34.375 22C28.761 22.9907 24.3657 27.386 23.375 33C22.3843 27.386 17.989 22.9907 12.375 22C17.989 21.0093 22.3843 16.614 23.375 11Z" fill="white"/>
<path d="M15.8493 27.2105C16.0579 28.3923 16.9827 29.3181 18.1645 29.5267C16.9828 29.7353 16.058 30.6602 15.8493 31.8419C15.6407 30.6601 14.7149 29.7353 13.5331 29.5267C14.715 29.3181 15.6408 28.3924 15.8493 27.2105Z" fill="white"/>
<path d="M15.8483 11C16.1612 12.7728 17.5498 14.1605 19.3226 14.4733C17.5498 14.7862 16.1612 16.1748 15.8483 17.9476C15.5355 16.1748 14.1478 14.7862 12.375 14.4733C14.1478 14.1604 15.5354 12.7728 15.8483 11Z" fill="white"/>
</svg>
