<svg width="24" height="24" viewBox="0 0 24 24" fill="none" xmlns="http://www.w3.org/2000/svg">
<path d="M12 4.5C12.663 4.5 13.2987 4.76358 13.7676 5.23242C14.2364 5.70126 14.5 6.33696 14.5 7V11C14.5 11.663 14.2364 12.2987 13.7676 12.7676C13.2987 13.2364 12.663 13.5 12 13.5C11.337 13.5 10.7013 13.2364 10.2324 12.7676C9.76358 12.2987 9.5 11.663 9.5 11V7C9.5 6.33696 9.76358 5.70126 10.2324 5.23242C10.6427 4.82219 11.1806 4.56952 11.7529 4.5127L12 4.5Z" stroke="#24272C" stroke-linecap="round" stroke-linejoin="round"/>
<path d="M6 10V11C6 14.3137 8.68629 17 12 17C15.3137 17 18 14.3137 18 11V10" stroke="#24272C" stroke-linecap="round"/>
<path d="M12 17V20" stroke="#24272C" stroke-linecap="round" stroke-linejoin="round"/>
</svg>
