<svg width="32" height="17" viewBox="0 0 32 17" fill="none" xmlns="http://www.w3.org/2000/svg">
<path d="M0 7C0 3.13401 3.13401 0 7 0H25C28.866 0 32 3.13401 32 7C32 10.866 28.866 14 25 14H7C3.13401 14 0 10.866 0 7Z" fill="url(#paint0_linear_8009_6871)"/>
<path d="M11.376 4.268V10H10.988C10.9267 10 10.8747 9.98933 10.832 9.968C10.792 9.94667 10.752 9.91067 10.712 9.86L7.396 5.54C7.40133 5.60667 7.40533 5.672 7.408 5.736C7.41067 5.8 7.412 5.86 7.412 5.916V10H6.732V4.268H7.132C7.16667 4.268 7.196 4.27067 7.22 4.276C7.244 4.27867 7.26533 4.28533 7.284 4.296C7.30267 4.304 7.32133 4.31733 7.34 4.336C7.35867 4.352 7.37867 4.37333 7.4 4.4L10.716 8.716C10.7107 8.64667 10.7053 8.58 10.7 8.516C10.6973 8.44933 10.696 8.38667 10.696 8.328V4.268H11.376ZM16.4574 9.368L16.4534 10H12.9214V4.268H16.4534V4.9H13.6974V6.804H15.9294V7.412H13.6974V9.368H16.4574ZM25.0466 4.268L23.2586 10H22.5626L21.1106 5.628C21.0972 5.58533 21.0839 5.54 21.0706 5.492C21.0599 5.444 21.0479 5.39333 21.0346 5.34C21.0212 5.39333 21.0079 5.444 20.9946 5.492C20.9812 5.54 20.9679 5.58533 20.9546 5.628L19.4946 10H18.7986L17.0106 4.268H17.6546C17.7239 4.268 17.7812 4.28533 17.8266 4.32C17.8746 4.35467 17.9052 4.39867 17.9186 4.452L19.1026 8.436C19.1212 8.508 19.1386 8.58533 19.1546 8.668C19.1732 8.75067 19.1906 8.83867 19.2066 8.932C19.2252 8.83867 19.2439 8.75067 19.2626 8.668C19.2839 8.58267 19.3066 8.50533 19.3306 8.436L20.6786 4.452C20.6946 4.40667 20.7252 4.36533 20.7706 4.328C20.8186 4.288 20.8759 4.268 20.9426 4.268H21.1666C21.2359 4.268 21.2919 4.28533 21.3346 4.32C21.3772 4.35467 21.4092 4.39867 21.4306 4.452L22.7746 8.436C22.7986 8.50533 22.8199 8.58 22.8386 8.66C22.8599 8.74 22.8799 8.824 22.8986 8.912C22.9119 8.824 22.9266 8.74 22.9426 8.66C22.9586 8.58 22.9759 8.50533 22.9946 8.436L24.1826 4.452C24.1959 4.404 24.2252 4.36133 24.2706 4.324C24.3186 4.28667 24.3759 4.268 24.4426 4.268H25.0466Z" fill="white"/>
<path d="M19.5 14C18.796 14 18.1273 14.3088 17.6708 14.8448L16.7414 15.9361C16.3421 16.4049 15.6181 16.4049 15.2188 15.9361L14.2636 14.8145C13.8235 14.2977 13.1788 14 12.5 14L19.5 14Z" fill="url(#paint1_linear_8009_6871)"/>
<path opacity="0.3" d="M29.0039 1.26367L29.1342 1.35684C29.6207 1.70461 30.0581 2.11622 30.4348 2.5806L25.5 14H23.5L29.0039 1.26367Z" fill="white"/>
<defs>
<linearGradient id="paint0_linear_8009_6871" x1="1.15663" y1="-3.07666e-07" x2="56.7531" y2="14.5652" gradientUnits="userSpaceOnUse">
<stop stop-color="#D02F2F"/>
<stop offset="1" stop-color="#FFA726"/>
</linearGradient>
<linearGradient id="paint1_linear_8009_6871" x1="14.996" y1="13.7114" x2="18.0281" y2="15.5282" gradientUnits="userSpaceOnUse">
<stop stop-color="#DD512C"/>
<stop offset="1" stop-color="#E15B2C"/>
</linearGradient>
</defs>
</svg>
