<svg width="79" height="74" viewBox="0 0 79 74" fill="none" xmlns="http://www.w3.org/2000/svg">
<g opacity="0.18">
<g filter="url(#filter0_f_8009_7514)">
<path d="M70.6308 68.3713C70.6308 68.3713 55.4912 70.7612 36.8154 70.7612C18.1397 70.7612 3 68.3713 3 68.3713C3 68.3713 18.1397 65.9814 36.8154 65.9814C55.4912 65.9814 70.6308 68.3713 70.6308 68.3713Z" fill="black" fill-opacity="0.7"/>
</g>
<g filter="url(#filter1_f_8009_7514)">
<path d="M58.4386 68.3715C58.4386 68.3715 48.7591 69.1681 36.8189 69.1681C24.8787 69.1681 15.1992 68.3715 15.1992 68.3715C15.1992 68.3715 24.8787 67.5748 36.8189 67.5748C48.7591 67.5748 58.4386 68.3715 58.4386 68.3715Z" fill="black" fill-opacity="0.9"/>
</g>
<g filter="url(#filter2_f_8009_7514)">
<path d="M53.9967 68.371C53.9967 68.371 46.3028 67.5744 36.8118 67.5744C27.3209 67.5744 19.627 68.371 19.627 68.371C19.627 68.371 27.3209 69.1676 36.8118 69.1676C46.3028 69.1676 53.9967 68.371 53.9967 68.371Z" fill="black" fill-opacity="0.6"/>
</g>
<g filter="url(#filter3_f_8009_7514)">
<path d="M50.6726 68.3715C50.6726 68.3715 44.4678 69.1681 36.8139 69.1681C29.1599 69.1681 22.9551 68.3715 22.9551 68.3715C22.9551 68.3715 29.1599 67.5748 36.8139 67.5748C44.4678 67.5748 50.6726 68.3715 50.6726 68.3715Z" fill="black"/>
</g>
</g>
<path d="M67.9135 24.2363C68.5547 22.1022 68.5487 19.8259 67.8962 17.6952C67.2437 15.5645 65.974 13.6752 64.2476 12.2661C62.5213 10.857 60.4159 9.99147 58.1976 9.77893C55.9794 9.56638 53.7479 10.0164 51.7854 11.072" stroke="#24272C" stroke-linecap="round" stroke-linejoin="round"/>
<path d="M71.8619 26.0668C72.7628 23.0683 72.7543 19.87 71.8375 16.8763C70.9207 13.8826 69.1367 11.228 66.7112 9.24818C64.2856 7.26836 61.3274 6.05224 58.2107 5.7536C55.094 5.45496 51.9586 6.08721 49.2012 7.57041" stroke="#24272C" stroke-linecap="round" stroke-linejoin="round"/>
<path d="M63.1176 22.7954C63.4738 21.6099 63.4704 20.3453 63.1078 19.1617C62.7453 17.978 62.0399 16.9285 61.0809 16.1457C60.1219 15.3629 58.9523 14.8821 57.72 14.764C56.4877 14.6458 55.2481 14.8958 54.1578 15.4821C53.6191 15.7718 53.1289 16.1372 52.7006 16.5647" stroke="#24272C" stroke-linecap="round" stroke-linejoin="round"/>
<path d="M56.1556 20.2026C55.9457 20.4598 55.8465 20.7899 55.8799 21.1202C55.9133 21.4505 56.0766 21.754 56.3338 21.964C56.591 22.1739 56.9211 22.2731 57.2515 22.2397C57.5818 22.2063 57.8853 22.043 58.0953 21.7858C58.3052 21.5286 58.4044 21.1985 58.371 20.8682C58.3376 20.5379 58.1743 20.2343 57.9171 20.0244C57.6599 19.8144 57.3298 19.7153 56.9995 19.7487C56.6691 19.7821 56.3656 19.9454 56.1556 20.2026Z" stroke="#6D6D6D" stroke-linecap="round" stroke-linejoin="round"/>
<path d="M55.2749 20.3826L0.397692 31.5831L7.54571 68.0606L60.2314 57.3071C60.2314 57.3071 61.8305 57.0289 62.0599 56.592C62.3294 56.0779 62.1223 55.3334 62.1223 55.3334L55.2731 20.3827L55.2749 20.3826Z" fill="#585954"/>
<path d="M56.4394 20.6427L0.610834 31.5105L7.62977 67.8999L61.2309 57.4664C61.2309 57.4664 62.858 57.197 63.0933 56.7632C63.3713 56.2524 63.165 55.5086 63.165 55.5086L56.4412 20.6426L56.4394 20.6427Z" fill="#585954"/>
<path d="M57.1849 21.1241L1.25743 31.4719L7.94069 67.924L61.6362 57.9886C61.6362 57.9886 63.2639 57.7358 63.5048 57.3036C63.7865 56.7963 63.5893 56.0504 63.5893 56.0504L57.1849 21.1241Z" fill="#FFF7F2"/>
<path d="M57.5825 22.8446L2.31055 31.8986L8.03186 68.6269L61.0965 59.9342C61.0965 59.9342 62.7052 59.7185 62.9515 59.2909C63.2409 58.7877 63.0629 58.0357 63.0629 58.0357L57.5807 22.8446H57.5825Z" fill="#585954"/>
<path d="M58.7282 23.1499L2.51855 31.8344L8.11432 68.4696L62.0813 60.1323C62.0813 60.1323 63.7176 59.9266 63.9696 59.5023C64.2673 59.0027 64.0902 58.2514 64.0902 58.2514L58.73 23.1499H58.7282Z" fill="#585954"/>
<path d="M59.4591 23.6604L3.1709 31.8214L8.42879 68.5062L62.4706 60.6703C62.4706 60.6703 64.107 60.4812 64.3645 60.0587C64.6658 59.5627 64.4978 58.8097 64.4978 58.8097L59.4591 23.6604Z" fill="#FFF7F2"/>
<path d="M60.2955 58.7665L11.7858 65.797L11.6964 65.1718L60.2054 58.1405L60.2955 58.7665Z" fill="#C9C9C9"/>
<path d="M60.072 57.2233L11.5623 64.2538L11.4729 63.6286L59.9818 56.5981L60.072 57.2233Z" fill="#C9C9C9"/>
<path d="M33.4887 59.5L11.3422 62.71L11.2521 62.0826L33.3993 58.8726L33.4887 59.5Z" fill="#C9C9C9"/>
<path d="M33.2651 57.9554L11.118 61.1654L11.0285 60.5402L33.1757 57.3302L33.2651 57.9554Z" fill="#C9C9C9"/>
<path d="M59.7096 54.6918C59.7878 55.2379 59.4091 55.7442 58.8631 55.8233L36.1105 59.1209C35.5633 59.2002 35.0556 58.8204 34.9772 58.273L32.6816 42.2504C32.6033 41.7043 32.9821 41.198 33.528 41.1189L56.2807 37.8213C56.8279 37.742 57.3356 38.1218 57.414 38.6692L59.7096 54.6918Z" fill="#C9C9C9"/>
<path d="M23.9353 56.1531L10.6765 58.0749L10.587 57.4496L23.8458 55.5278L23.9353 56.1531Z" fill="#C9C9C9"/>
<path d="M32.6042 53.3224L10.4592 56.5317L10.3691 55.9051L32.5141 52.6951L32.6042 53.3224Z" fill="#C9C9C9"/>
<path d="M32.3849 51.7771L10.2384 54.9871L10.1483 54.3598L32.2955 51.1498L32.3849 51.7771Z" fill="#C9C9C9"/>
<path d="M32.1613 50.2305L10.0142 53.4405L9.92475 52.8152L32.0719 49.6053L32.1613 50.2305Z" fill="#C9C9C9"/>
<path d="M31.9406 48.6852L9.79342 51.8952L9.70399 51.27L31.8511 48.06L31.9406 48.6852Z" fill="#C9C9C9"/>
<path d="M31.7184 47.1427L9.57336 50.352L9.48324 49.7254L31.6283 46.5154L31.7184 47.1427Z" fill="#C9C9C9"/>
<path d="M31.499 45.5954L9.3519 48.8054L9.26248 48.1801L31.4096 44.9702L31.499 45.5954Z" fill="#C9C9C9"/>
<path d="M31.1947 43.4705C31.2729 44.0166 30.8942 44.5229 30.3482 44.602L10.1804 47.5251C9.6332 47.6044 9.12549 47.2246 9.04707 46.6773L8.90666 45.6972C8.82842 45.1511 9.20717 44.6448 9.75311 44.5657L29.9209 41.6426C30.4681 41.5633 30.9759 41.9431 31.0543 42.4904L31.1947 43.4705Z" fill="#C9C9C9"/>
<path d="M57.7833 36.2023L57.8343 36.5564L7.91068 43.7951L7.80868 43.0875L57.7316 35.8481L57.7833 36.2023Z" fill="#C9C9C9"/>
<path d="M26.0856 33.6692L25.7712 33.7153C25.5648 33.7447 25.4348 33.8214 25.3709 33.95C25.3544 33.985 25.3202 34.1123 25.3786 34.518L26.0905 39.4898L25.7747 39.5359L21.5216 35.6161L21.9855 38.8541C22.0493 39.2941 22.1273 39.4051 22.1566 39.4311C22.2534 39.5119 22.3997 39.5396 22.5877 39.5121L22.902 39.466L22.9565 39.8461L20.7398 40.1674L20.6847 39.7874L20.9955 39.7434C21.2036 39.714 21.3354 39.6365 21.3993 39.5079C21.4158 39.4725 21.4499 39.3451 21.3916 38.9407L20.8216 34.9714C20.6501 34.8227 20.5223 34.7237 20.4401 34.6814C20.3561 34.6374 20.2299 34.6 20.0692 34.5725C19.9961 34.5615 19.8812 34.5672 19.7262 34.5892L19.6144 34.606L19.5599 34.2253L21.2806 33.9759L25.2144 37.6148L24.7834 34.6018C24.7213 34.1612 24.6405 34.0512 24.6094 34.0255C24.5127 33.9447 24.3686 33.9169 24.177 33.9444L23.8682 33.9884V33.9905L23.813 33.6105L26.0304 33.2892L26.0856 33.6692Z" fill="#C9C9C9"/>
<path d="M31.0317 34.0772L30.6593 34.1324L30.63 34.0443C30.5076 33.6953 30.4179 33.5465 30.3631 33.4841C30.2901 33.3978 30.1918 33.339 30.0641 33.3059C29.9965 33.2912 29.8392 33.2815 29.5031 33.3311L28.0403 33.5427L28.3344 35.6001L29.4829 35.4324C29.8536 35.3791 29.9944 35.2927 30.0473 35.2284C30.155 35.0998 30.1956 34.885 30.1682 34.5857L30.1591 34.4795L30.5315 34.4258L30.8507 36.6556L30.4875 36.7094L30.4602 36.6158C30.3599 36.2727 30.3031 36.1623 30.2793 36.1254C30.23 36.0538 30.1553 36.0041 30.055 35.971C29.9473 35.9361 29.7807 35.9356 29.5597 35.9668L28.4112 36.1345L28.6669 37.9236C28.7162 38.2647 28.7473 38.3327 28.7528 38.342C28.771 38.3731 28.7964 38.3951 28.8346 38.4098C28.851 38.4171 28.9153 38.4338 29.107 38.4063L30.0788 38.2652C30.391 38.2193 30.6135 38.1655 30.7432 38.1031C30.8655 38.0443 30.9828 37.9454 31.0869 37.8076C31.2274 37.6184 31.3643 37.3356 31.4921 36.9665L31.4997 36.9644L31.5214 36.9001L31.9119 36.8436L31.5801 38.5956L26.97 39.2641L26.9155 38.8841L27.2299 38.838C27.3466 38.8214 27.4525 38.7775 27.5491 38.706C27.6112 38.6619 27.6474 38.6085 27.6602 38.5425C27.6712 38.4856 27.6749 38.3496 27.6274 38.0172L27.0909 34.27C27.0233 33.7998 26.943 33.6985 26.9211 33.6783C26.8316 33.603 26.6816 33.579 26.4789 33.6084L26.1645 33.6545L26.11 33.2745L30.7453 32.6025L31.0317 34.0772Z" fill="#C9C9C9"/>
<path d="M39.6029 31.709L39.4918 31.7257C39.3639 31.7441 39.2636 31.781 39.1942 31.8361C39.1249 31.8912 39.061 31.9901 39.0062 32.1295C38.9789 32.1975 38.9291 32.3796 38.847 32.8553L37.9011 37.8167L37.5741 37.8642L35.8486 34.5767L35.1248 38.2191L34.8167 38.2631L32.3891 33.6503C32.1723 33.2363 32.0938 33.1038 32.0663 33.0649C32.0079 32.9841 31.9379 32.9285 31.8539 32.8973C31.7663 32.8643 31.6477 32.8592 31.5018 32.8812L31.3901 32.8973L31.3356 32.5172L33.6808 32.1777L33.7353 32.5577L33.5236 32.5892C33.4031 32.6057 33.3156 32.6443 33.2644 32.7031C33.2169 32.7582 33.1987 32.8134 33.2078 32.8777C33.2153 32.9276 33.2591 33.0732 33.4796 33.5001L34.9243 36.2868L35.4119 33.7516L35.0012 32.958C34.9299 32.8368 34.849 32.7285 34.765 32.6367C34.7304 32.5982 34.6902 32.569 34.6428 32.5452C34.5735 32.5085 34.5098 32.4864 34.4479 32.4753C34.4168 32.4698 34.3545 32.4675 34.225 32.4858L34.1132 32.5026L34.0587 32.1225L36.5129 31.7663L36.5681 32.1463L36.3047 32.1847C36.177 32.2031 36.0891 32.2421 36.0435 32.2972C36.0016 32.3504 35.9853 32.4183 35.9981 32.5026C36.0108 32.5925 36.071 32.7855 36.2845 33.1949L37.6838 35.8844L38.2587 32.8665C38.3464 32.422 38.3519 32.2287 38.3391 32.1442C38.3335 32.1021 38.3153 32.0654 38.2825 32.0324C38.2497 31.9994 38.2131 31.9773 38.1693 31.9681C38.069 31.9462 37.9377 31.9483 37.7809 31.9702L37.6691 31.9863V31.9905L37.6146 31.6098L39.5484 31.3289L39.6029 31.709Z" fill="#C9C9C9"/>
<path d="M43.8853 32.826L43.5199 32.8791L43.4948 32.7841C43.3943 32.4241 43.2646 32.1426 43.1112 31.9479C42.9615 31.7587 42.762 31.6159 42.5209 31.5259C42.2799 31.4359 42.035 31.4065 41.7958 31.4414C41.5293 31.48 41.3286 31.5881 41.1789 31.7753C41.0328 31.959 40.9744 32.1464 41.0036 32.3447C41.0236 32.4935 41.095 32.6201 41.2173 32.7303C41.4128 32.9085 41.8599 33.1258 42.5503 33.3793C43.1401 33.5942 43.5363 33.763 43.7609 33.8934C43.9929 34.0275 44.1832 34.2 44.3275 34.4076L44.3324 34.4055C44.4767 34.613 44.5702 34.8447 44.6049 35.0908C44.6724 35.5574 44.5479 35.991 44.2374 36.3804C43.9288 36.766 43.4907 37.0031 42.9338 37.0839C42.7623 37.1096 42.5943 37.119 42.4392 37.1153C42.3442 37.1153 42.1538 37.0892 41.8579 37.0378C41.4855 36.9753 41.3796 36.9775 41.3522 36.9812C41.2994 36.9885 41.2793 37.0084 41.2683 37.0231C41.2628 37.0304 41.2355 37.075 41.2355 37.2348V37.3319L40.8722 37.385L40.5558 35.1844L40.9155 35.1334L40.9449 35.2228C41.0727 35.6122 41.21 35.8974 41.3543 36.0737C41.493 36.2444 41.6937 36.3766 41.9474 36.4684C42.203 36.5602 42.4771 36.5863 42.7619 36.546C43.0851 36.5001 43.3282 36.3768 43.4871 36.1841C43.6441 35.9894 43.7064 35.7871 43.6736 35.563C43.6554 35.44 43.604 35.3187 43.5164 35.2012C43.4288 35.0818 43.2991 34.9749 43.1329 34.8812C43.016 34.8133 42.691 34.6773 42.1688 34.4754C41.6356 34.2678 41.2443 34.0936 41.0105 33.9577C40.7677 33.8163 40.5722 33.6452 40.4279 33.4505C40.2819 33.2522 40.1892 33.0226 40.1527 32.7673C40.0887 32.3247 40.2035 31.9133 40.4957 31.5441C40.7861 31.1767 41.1934 30.9544 41.7084 30.8791C42.0262 30.8332 42.3788 30.8624 42.755 30.9671C42.9612 31.0258 43.0362 31.0259 43.0582 31.0223C43.1183 31.0131 43.1421 30.9889 43.1567 30.9706C43.166 30.9591 43.1947 30.9092 43.2056 30.7526L43.2111 30.6604L43.5674 30.6094L43.8853 32.826Z" fill="#C9C9C9"/>
<path fill-rule="evenodd" clip-rule="evenodd" d="M57.8867 26.2216L62.5723 58.902L62.5779 58.9313C62.5824 58.9557 62.5881 58.9899 62.5939 59.0312C62.6057 59.1142 62.6181 59.2303 62.6205 59.363C62.6244 59.5858 62.6015 59.8961 62.4675 60.1804L62.4032 60.2998C62.3354 60.4112 62.2382 60.4917 62.1517 60.5485C62.0622 60.6073 61.9611 60.6559 61.8611 60.6966C61.661 60.778 61.4295 60.8415 61.2184 60.8895C61.0051 60.9379 60.801 60.9731 60.6511 60.9963C60.5759 61.008 60.5132 61.0164 60.4695 61.0222C60.4477 61.0251 60.4305 61.0277 60.4185 61.0292C60.4125 61.0299 60.4071 61.0302 60.4038 61.0306L60.4003 61.0313H60.3989L10.7191 68.2343L10.3642 68.2853L5.35938 33.3611L58.1438 25.7061L57.8867 26.2216ZM6.16836 33.9661L10.9706 67.4743L12.0038 67.3241L11.9172 66.7163L60.4262 59.6858L60.5135 60.2929C60.5225 60.2915 60.5319 60.2908 60.5414 60.2894C60.6809 60.2678 60.8677 60.2352 61.0598 60.1916C61.2541 60.1475 61.4432 60.0947 61.5914 60.0344C61.6654 60.0043 61.7213 59.9754 61.7591 59.9506C61.7997 59.9238 61.8008 59.9136 61.7919 59.9282L61.822 59.8723C61.8856 59.7355 61.9083 59.5555 61.9051 59.3756C61.9034 59.2788 61.8942 59.1929 61.8855 59.1318C61.8813 59.1019 61.8772 59.0779 61.8744 59.0627C61.873 59.0553 61.8722 59.0491 61.8716 59.0459L61.8709 59.0438L61.8681 59.0305L61.866 59.0166L57.2133 26.5646L6.16836 33.9661Z" fill="#C9C9C9"/>
<path d="M26.0862 33.6694L25.7718 33.7155C25.5655 33.7449 25.4355 33.8217 25.3715 33.9502C25.3551 33.9852 25.3208 34.1125 25.3792 34.5182L26.0911 39.49L25.7753 39.5361L21.5222 35.6164L21.9861 38.8543C22.0499 39.2943 22.1279 39.4053 22.1573 39.4313C22.254 39.5121 22.4003 39.5398 22.5883 39.5124L22.9027 39.4662L22.9572 39.8463L20.7405 40.1676L20.6853 39.7876L20.9962 39.7436C21.2043 39.7142 21.3361 39.6367 21.4 39.5082C21.4165 39.4727 21.4505 39.3453 21.3923 38.9409L20.8222 34.9716C20.6507 34.8229 20.523 34.7239 20.4408 34.6817C20.3568 34.6376 20.2305 34.6002 20.0698 34.5727C19.9968 34.5617 19.8818 34.5674 19.7268 34.5894L19.615 34.6062L19.5605 34.2255L21.2812 33.9761L25.215 37.615L24.784 34.602C24.7219 34.1614 24.6411 34.0514 24.6101 34.0257C24.5133 33.9449 24.3692 33.9172 24.1776 33.9447L23.8688 33.9887V33.9908L23.8136 33.6107L26.031 33.2894L26.0862 33.6694Z" fill="#6D6D6D"/>
<path d="M31.0323 34.0774L30.66 34.1326L30.6306 34.0445C30.5083 33.6956 30.4186 33.5467 30.3638 33.4843C30.2908 33.398 30.1925 33.3392 30.0648 33.3061C29.9972 33.2915 29.8398 33.2817 29.5038 33.3313L28.0409 33.543L28.335 35.6003L29.4835 35.4326C29.8543 35.3794 29.995 35.2929 30.048 35.2286C30.1557 35.1001 30.1962 34.8853 30.1689 34.5859L30.1598 34.4798L30.5321 34.426L30.8514 36.6558L30.4881 36.7096L30.4609 36.616C30.3605 36.273 30.3037 36.1625 30.2799 36.1256C30.2307 36.0541 30.156 36.0043 30.0557 35.9712C29.9479 35.9363 29.7813 35.9358 29.5604 35.967L28.4119 36.1347L28.6676 37.9238C28.7168 38.2649 28.748 38.3329 28.7535 38.3422C28.7717 38.3734 28.7971 38.3953 28.8352 38.41C28.8517 38.4173 28.9159 38.434 29.1077 38.4065L30.0794 38.2654C30.3916 38.2195 30.6142 38.1657 30.7438 38.1033C30.8662 38.0445 30.9834 37.9456 31.0875 37.8078C31.2281 37.6186 31.3649 37.3358 31.4927 36.9667L31.5004 36.9646L31.522 36.9004L31.9126 36.8438L31.5807 38.5958L26.9706 39.2644L26.9162 38.8843L27.2305 38.8382C27.3472 38.8217 27.4531 38.7777 27.5498 38.7062C27.6118 38.6621 27.648 38.6088 27.6609 38.5427C27.6718 38.4858 27.6755 38.3498 27.628 38.0174L27.0915 34.2702C27.0239 33.8 26.9437 33.6987 26.9217 33.6785C26.8323 33.6032 26.6822 33.5792 26.4795 33.6086L26.1652 33.6547L26.1107 33.2747L30.7459 32.6027L31.0323 34.0774Z" fill="#6D6D6D"/>
<path d="M39.6035 31.7092L39.4924 31.726C39.3646 31.7443 39.2642 31.7812 39.1948 31.8363C39.1255 31.8914 39.0616 31.9903 39.0069 32.1297C38.9795 32.1977 38.9298 32.3798 38.8476 32.8556L37.9017 37.8169L37.5748 37.8644L35.8492 34.5769L35.1254 38.2193L34.8174 38.2633L32.3897 33.6505C32.173 33.2366 32.0945 33.104 32.067 33.0651C32.0085 32.9843 31.9386 32.9287 31.8546 32.8975C31.767 32.8645 31.6484 32.8594 31.5025 32.8814L31.3907 32.8975L31.3362 32.5174L33.6814 32.1779L33.7359 32.558L33.5243 32.5894C33.4037 32.6059 33.3162 32.6445 33.2651 32.7033C33.2176 32.7584 33.1993 32.8136 33.2085 32.8779C33.2159 32.9279 33.2598 33.0734 33.4802 33.5004L34.9249 36.287L35.4126 33.7518L35.0018 32.9583C34.9306 32.837 34.8497 32.7287 34.7657 32.6369C34.731 32.5984 34.6908 32.5692 34.6434 32.5454C34.5742 32.5087 34.5105 32.4866 34.4485 32.4755C34.4175 32.47 34.3551 32.4677 34.2256 32.486L34.1139 32.5028L34.0594 32.1227L36.5136 31.7665L36.5688 32.1465L36.3054 32.1849C36.1776 32.2033 36.0898 32.2423 36.0441 32.2974C36.0023 32.3506 35.986 32.4185 35.9987 32.5028C36.0115 32.5928 36.0716 32.7857 36.2851 33.1951L37.6844 35.8846L38.2594 32.8667C38.347 32.4222 38.3525 32.2289 38.3397 32.1444C38.3342 32.1023 38.3159 32.0656 38.2831 32.0326C38.2503 31.9997 38.2137 31.9775 38.17 31.9684C38.0696 31.9464 37.9384 31.9485 37.7815 31.9705L37.6698 31.9865V31.9907L37.6153 31.61L39.549 31.3292L39.6035 31.7092Z" fill="#6D6D6D"/>
<path d="M43.8859 32.8262L43.5206 32.8793L43.4954 32.7843C43.395 32.4243 43.2653 32.1428 43.1119 31.9481C42.9621 31.7589 42.7626 31.6162 42.5216 31.5262C42.2805 31.4362 42.0357 31.4067 41.7964 31.4416C41.53 31.4802 41.3293 31.5884 41.1796 31.7756C41.0335 31.9592 40.975 32.1466 41.0042 32.3449C41.0243 32.4937 41.0956 32.6203 41.218 32.7305C41.4134 32.9087 41.8606 33.126 42.5509 33.3795C43.1407 33.5944 43.537 33.7633 43.7616 33.8937C43.9935 34.0277 44.1839 34.2003 44.3282 34.4078L44.3331 34.4057C44.4773 34.6133 44.5708 34.8449 44.6055 35.091C44.6731 35.5576 44.5485 35.9912 44.238 36.3806C43.9294 36.7662 43.4914 37.0033 42.9344 37.0841C42.7629 37.1098 42.595 37.1192 42.4398 37.1155C42.3449 37.1155 42.1545 37.0894 41.8586 37.038C41.4862 36.9755 41.3802 36.9777 41.3528 36.9814C41.3001 36.9887 41.28 37.0086 41.269 37.0233C41.2635 37.0307 41.2361 37.0752 41.2361 37.235V37.3321L40.8729 37.3852L40.5564 35.1846L40.9162 35.1336L40.9455 35.2231C41.0734 35.6125 41.2106 35.8976 41.3549 36.0739C41.4937 36.2446 41.6944 36.3768 41.948 36.4686C42.2036 36.5604 42.4778 36.5865 42.7626 36.5462C43.0857 36.5003 43.3288 36.3771 43.4877 36.1843C43.6448 35.9896 43.7071 35.7873 43.6743 35.5633C43.656 35.4402 43.6047 35.3189 43.5171 35.2014C43.4294 35.082 43.2997 34.9751 43.1336 34.8814C43.0166 34.8135 42.6916 34.6776 42.1695 34.4756C41.6362 34.268 41.245 34.0938 41.0112 33.9579C40.7683 33.8165 40.5728 33.6454 40.4286 33.4508C40.2825 33.2524 40.1898 33.0228 40.1533 32.7675C40.0894 32.3249 40.2042 31.9135 40.4963 31.5443C40.7867 31.177 41.1941 30.9546 41.7091 30.8793C42.0268 30.8334 42.3794 30.8626 42.7556 30.9673C42.9619 31.026 43.0369 31.0262 43.0588 31.0225C43.1189 31.0133 43.1427 30.9891 43.1573 30.9708C43.1666 30.9593 43.1953 30.9094 43.2062 30.7528L43.2118 30.6606L43.5681 30.6096L43.8859 32.8262Z" fill="#6D6D6D"/>
<defs>
<filter id="filter0_f_8009_7514" x="0" y="62.9814" width="73.6309" height="10.7798" filterUnits="userSpaceOnUse" color-interpolation-filters="sRGB">
<feFlood flood-opacity="0" result="BackgroundImageFix"/>
<feBlend mode="normal" in="SourceGraphic" in2="BackgroundImageFix" result="shape"/>
<feGaussianBlur stdDeviation="1.5" result="effect1_foregroundBlur_8009_7514"/>
</filter>
<filter id="filter1_f_8009_7514" x="14.1992" y="66.5748" width="45.2393" height="3.59326" filterUnits="userSpaceOnUse" color-interpolation-filters="sRGB">
<feFlood flood-opacity="0" result="BackgroundImageFix"/>
<feBlend mode="normal" in="SourceGraphic" in2="BackgroundImageFix" result="shape"/>
<feGaussianBlur stdDeviation="0.5" result="effect1_foregroundBlur_8009_7514"/>
</filter>
<filter id="filter2_f_8009_7514" x="16.627" y="64.5743" width="40.3701" height="7.59326" filterUnits="userSpaceOnUse" color-interpolation-filters="sRGB">
<feFlood flood-opacity="0" result="BackgroundImageFix"/>
<feBlend mode="normal" in="SourceGraphic" in2="BackgroundImageFix" result="shape"/>
<feGaussianBlur stdDeviation="1.5" result="effect1_foregroundBlur_8009_7514"/>
</filter>
<filter id="filter3_f_8009_7514" x="22.5551" y="67.1748" width="28.5178" height="2.39326" filterUnits="userSpaceOnUse" color-interpolation-filters="sRGB">
<feFlood flood-opacity="0" result="BackgroundImageFix"/>
<feBlend mode="normal" in="SourceGraphic" in2="BackgroundImageFix" result="shape"/>
<feGaussianBlur stdDeviation="0.2" result="effect1_foregroundBlur_8009_7514"/>
</filter>
</defs>
</svg>
