<svg width="95" height="88" viewBox="0 0 95 88" fill="none" xmlns="http://www.w3.org/2000/svg">
<g style="mix-blend-mode:multiply">
<path opacity="0.02" d="M24.3803 72.6226C23.7982 71.8366 26.0871 71.4114 28.0151 71.2103C29.3687 71.0691 30.6246 71.0304 30.6246 71.0304L49.1468 71.8753L67.7137 72.7219V73.1195L67.6937 74.3525C67.6937 74.5522 67.5335 74.778 67.3465 74.8533L56.7011 79.3723L46.0254 83.9035C46.0254 83.9035 41.4484 82.2167 36.5501 80.0125C34.1011 78.9103 31.4662 77.6249 29.3126 76.371C27.1589 75.1175 25.2251 73.7611 24.3803 72.6223V72.6226Z" fill="#FCFCFC"/>
<path opacity="0.04" d="M24.4327 72.6293C23.8625 71.859 26.1785 71.4231 28.0679 71.2256C29.3943 71.0872 30.671 71.0507 30.671 71.0507L49.1467 71.8905L67.7122 72.7336V73.1304L67.6721 74.347C67.6721 74.5427 67.5044 74.7682 67.321 74.842L56.6982 79.3463L46.0142 83.8747C46.0142 83.8747 41.4254 82.1688 36.6251 80.0084C34.2251 78.9284 31.5612 77.6265 29.4505 76.3977C27.34 75.1693 25.26 73.7452 24.432 72.6289L24.4327 72.6293Z" fill="#FAF9F8"/>
<path opacity="0.06" d="M24.4815 72.634C23.9227 71.8794 26.2662 71.4325 28.117 71.2393C29.4166 71.1038 30.7137 71.0697 30.7137 71.0697L49.1433 71.9045L67.7073 72.744V73.1398L67.6469 74.3399C67.6469 74.5317 67.472 74.7568 67.2922 74.8288L56.6915 79.3181L45.9996 83.8439C45.9996 83.8439 41.3991 82.1187 36.6967 80.0024C34.3457 78.9442 31.6529 77.6262 29.5854 76.4225C27.5178 75.2188 25.2916 73.7269 24.4808 72.6336L24.4815 72.634Z" fill="#F7F6F5"/>
<path opacity="0.08" d="M24.5351 72.6411C23.9881 71.9024 26.3588 71.4443 28.1714 71.2554C29.4438 71.1224 30.7616 71.0912 30.7616 71.0912L49.1451 71.9206L67.708 72.7566V73.1516L67.6276 74.3352C67.6276 74.523 67.4452 74.7478 67.2693 74.8184L56.6912 79.293L45.9911 83.8159C45.9911 83.8159 41.3791 82.0713 36.7747 79.9991C34.4726 78.9632 31.7509 77.6287 29.7263 76.4501C27.702 75.2715 25.3295 73.7115 24.5355 72.6411H24.5351Z" fill="#F4F3F2"/>
<path opacity="0.1" d="M24.583 72.6466C24.0478 71.9236 26.4457 71.4547 28.2197 71.2694C29.4649 71.1393 30.8035 71.1102 30.8035 71.1102L49.1404 71.9347L67.7019 72.767V73.1609L67.6015 74.3281C67.6015 74.5119 67.412 74.7363 67.2397 74.8055L56.6837 79.2654L45.9753 83.7855C45.9753 83.7855 41.3516 82.0216 36.8451 79.9938C34.592 78.9797 31.8413 77.6291 29.86 76.4756C27.8786 75.3221 25.3599 73.6943 24.583 72.6466Z" fill="#F1F0EE"/>
<path opacity="0.12" d="M24.6458 72.6524C24.122 71.9451 26.5474 71.4652 28.2828 71.2841C29.5012 71.1569 30.8601 71.1304 30.8601 71.1304L49.151 71.9494L67.7111 72.7782V73.1714L67.5906 74.3217C67.5906 74.5013 67.3936 74.7257 67.2252 74.7934L56.6917 79.2382L45.9752 83.7558C45.9752 83.7558 41.34 81.9725 36.9315 79.9888C34.7274 78.997 31.9477 77.6299 30.0092 76.5014C28.0708 75.373 25.4062 73.6772 24.6458 72.652V72.6524Z" fill="#EFEEEB"/>
<path opacity="0.14" d="M24.6949 72.6577C24.1829 71.9659 26.6355 71.4755 28.3323 71.2984C29.5235 71.174 30.9032 71.15 30.9032 71.15L49.1479 71.9641L67.7066 72.7896V73.1817L67.566 74.3155C67.566 74.4912 67.3615 74.7152 67.1971 74.7812L56.6858 79.2113L45.9614 83.726C45.9614 83.726 41.3144 81.9233 37.0038 79.9838C34.8487 79.0138 32.0401 77.6305 30.1449 76.5272C28.2497 75.4239 25.4389 73.6599 24.6953 72.6577H24.6949Z" fill="#ECEBE8"/>
<path opacity="0.16" d="M24.7491 72.6631C24.2486 71.9871 26.7287 71.4856 28.3868 71.3124C29.5509 71.1909 30.9513 71.1691 30.9513 71.1691L49.1495 71.9777L67.7068 72.7997V73.1911L67.5462 74.3084C67.5462 74.4801 67.3346 74.7038 67.1733 74.7683L56.6842 79.1837L45.9516 83.6956C45.9516 83.6956 41.2928 81.8736 37.0805 79.9781C34.9744 79.0303 32.1368 77.6306 30.2845 76.5523C28.4322 75.4741 25.4752 73.6424 24.7487 72.6627L24.7491 72.6631Z" fill="#E9E8E4"/>
<path opacity="0.18" d="M24.7974 72.669C24.3087 72.0088 26.816 71.4962 28.4355 71.3273C29.5724 71.2087 30.9935 71.1893 30.9935 71.1893L49.1457 71.993L67.7015 72.8113V73.202L67.5206 74.3029C67.5206 74.4706 67.3014 74.6939 67.1441 74.757L56.6775 79.1574L45.9366 83.6667C45.9366 83.6667 41.2664 81.8254 37.1518 79.974C35.0946 79.0481 32.228 77.6322 30.4187 76.579C28.6096 75.5259 25.5064 73.6261 24.7967 72.6694L24.7974 72.669Z" fill="#E7E5E1"/>
<path opacity="0.2" d="M24.8567 72.6753C24.3794 72.0308 26.9142 71.5075 28.4955 71.3422C29.6056 71.2264 31.0471 71.2096 31.0471 71.2096L49.1531 72.0082L67.7075 72.823V73.2126L67.5066 74.297C67.5066 74.4608 67.2799 74.6837 67.1265 74.7454L56.6821 79.1311L45.933 83.6375C45.933 83.6375 41.251 81.7768 37.2343 79.9695C35.2261 79.0658 32.3306 77.6334 30.5645 76.6054C28.7983 75.5774 25.5489 73.6098 24.8564 72.6757L24.8567 72.6753Z" fill="#E4E2DD"/>
<path opacity="0.22" d="M24.9102 72.6804C24.4447 72.0516 27.0066 71.5172 28.5493 71.3562C29.6322 71.2433 31.0945 71.2286 31.0945 71.2286L49.154 72.0219L67.707 72.8331V73.222L67.486 74.2898C67.486 74.4497 67.2522 74.6723 67.1024 74.7322L56.6805 79.1031L45.9235 83.6068C45.9235 83.6068 41.23 81.7267 37.3113 79.9634C35.3521 79.0816 32.4273 77.6331 30.7044 76.6302C28.9816 75.6272 25.5859 73.5916 24.9102 72.6804Z" fill="#E1DFDA"/>
<path opacity="0.24" d="M24.9599 72.6868C24.5058 72.0738 27.0957 71.5286 28.5994 71.3716C29.6551 71.2616 31.1381 71.2494 31.1381 71.2494L49.1515 72.0376L67.703 72.8452V73.2331L67.4621 74.2844C67.4621 74.4403 67.2207 74.6626 67.0749 74.721L56.6751 79.0769L45.9099 83.578C45.9099 83.578 41.2047 81.6786 37.3839 79.9595C35.4737 79.0999 32.5199 77.6349 30.8403 76.657C29.1603 75.6792 25.6188 73.5754 24.9599 72.6872V72.6868Z" fill="#DFDCD7"/>
<path opacity="0.25" d="M25.0135 72.6919C24.5713 72.0947 27.1883 71.5383 28.6534 71.3853C29.6823 71.2778 31.1857 71.2684 31.1857 71.2684L49.153 72.0513L67.7034 72.8553V73.2424L67.4424 74.2769C67.4424 74.4286 67.194 74.6508 67.0517 74.7078L56.6744 79.049L45.901 83.5473C45.901 83.5473 41.184 81.6285 37.4615 79.9534C35.6003 79.1157 32.6175 77.6346 30.9808 76.6818C29.3441 75.729 25.656 73.5575 25.0139 72.6919H25.0135Z" fill="#DCD9D3"/>
<path opacity="0.27" d="M25.0732 72.6981C24.6427 72.1164 27.2869 71.5493 28.7134 71.4005C29.7151 71.2959 31.2392 71.2887 31.2392 71.2887L49.1601 72.0665L67.7091 72.867V73.253L67.4277 74.271C67.4277 74.4187 67.1717 74.6406 67.0333 74.6962L56.6783 79.0227L45.897 83.5181C45.897 83.5181 41.1685 81.5799 37.5437 79.9489C35.7314 79.1335 32.7197 77.6358 31.1263 76.7082C29.5325 75.7805 25.6985 73.5409 25.0732 72.6981Z" fill="#D9D6D0"/>
<path opacity="0.29" d="M25.1173 72.7044C24.6983 72.1384 27.37 71.5606 28.7579 71.4154C29.7325 71.3136 31.2773 71.309 31.2773 71.309L49.152 72.0814L67.6996 72.8783V73.2636L67.3982 74.2651C67.3982 74.4089 67.1347 74.6304 66.9999 74.6842L56.6674 78.9956L45.8779 83.4885C45.8779 83.4885 41.1376 81.531 37.6111 79.9441C35.8478 79.1505 32.8071 77.6367 31.2566 76.7342C29.706 75.8316 25.7255 73.5238 25.1173 72.7041V72.7044Z" fill="#D6D3CD"/>
<path opacity="0.31" d="M25.1771 72.7103C24.7699 72.1601 27.4688 71.5712 28.8184 71.4303C29.7659 71.3314 31.3314 71.3292 31.3314 71.3292L49.16 72.0967L67.7061 72.8899V73.2742L67.3847 74.2592C67.3847 74.399 67.1141 74.6202 66.9829 74.6725L56.6725 78.9693L45.8748 83.4593C45.8748 83.4593 41.1231 81.4824 37.6941 79.9396C35.9798 79.1682 32.9102 77.638 31.4029 76.7605C29.8953 75.883 25.7688 73.5075 25.1775 72.71L25.1771 72.7103Z" fill="#D4D1C9"/>
<path opacity="0.33" d="M25.2215 72.7154C24.8257 72.181 27.5521 71.5813 28.8631 71.4443C29.7837 71.3483 31.3697 71.3483 31.3697 71.3483L49.1518 72.1107L67.6965 72.9007V73.2843L67.3551 74.2528C67.3551 74.3887 67.0769 74.6095 66.9497 74.6604L56.6614 78.9425L45.8555 83.4296C45.8555 83.4296 41.092 81.4334 37.761 79.9347C36.0957 79.1851 32.9971 77.6388 31.5327 76.7864C30.0683 75.934 25.7957 73.4904 25.2211 72.7158L25.2215 72.7154Z" fill="#D1CEC6"/>
<path opacity="0.35" d="M25.2815 72.7222C24.8975 72.2035 27.6511 71.5927 28.9235 71.4597C29.8169 71.3665 31.4236 71.369 31.4236 71.369L49.1596 72.1261L67.7029 72.9125V73.295L67.3414 74.2471C67.3414 74.379 67.0558 74.5994 66.9324 74.6489L56.6667 78.9159L45.853 83.4005C45.853 83.4005 41.0776 81.3849 37.845 79.9303C36.2286 79.203 33.1011 77.6405 31.68 76.8129C30.2585 75.9855 25.8396 73.4739 25.2822 72.7222H25.2815Z" fill="#CECBC3"/>
<path opacity="0.37" d="M25.327 72.7269C24.9545 72.224 27.7356 71.6021 28.9694 71.4734C29.8356 71.3831 31.4631 71.3881 31.4631 71.3881L49.1529 72.1402L67.6948 72.923V73.3048L67.313 74.2403C67.313 74.3683 67.0201 74.5884 66.9004 74.6364L56.6568 78.8888L45.8348 83.3705C45.8348 83.3705 41.0481 81.3356 37.913 79.925C36.3456 79.2196 33.1891 77.641 31.8109 76.8384C30.4327 76.0362 25.8676 73.4567 25.3267 72.7277L25.327 72.7269Z" fill="#CCC8BF"/>
<path opacity="0.39" d="M25.3862 72.7333C25.0255 72.2462 27.8338 71.6135 29.029 71.4888C29.868 71.4013 31.5162 71.4085 31.5162 71.4085L49.1596 72.1551L67.7 72.9344V73.3151L67.2982 74.2338C67.2982 74.3575 66.9979 74.5772 66.882 74.6238L56.661 78.8614L45.8308 83.3403C45.8308 83.3403 41.0322 81.286 37.9955 79.9196C36.4771 79.2364 33.2916 77.6413 31.9563 76.8638C30.621 76.0866 25.9096 73.4391 25.3859 72.733L25.3862 72.7333Z" fill="#C9C5BC"/>
<path opacity="0.41" d="M25.4407 72.7386C25.0914 72.2669 27.9272 71.6234 29.0838 71.5027C29.8961 71.4177 31.5646 71.4277 31.5646 71.4277L49.1619 72.1694L67.7009 72.9451V73.325L67.279 74.2273C67.279 74.347 66.9715 74.5664 66.8593 74.6115L56.6604 78.8341L45.822 83.3105C45.822 83.3105 41.012 81.2368 38.0728 79.9145C36.6034 79.2531 33.389 77.6419 32.0969 76.8895C30.8049 76.1375 25.9473 73.4222 25.4404 72.7386H25.4407Z" fill="#C6C2B9"/>
<path opacity="0.43" d="M25.4913 72.7448C25.1538 72.2889 28.0168 71.6344 29.1351 71.5179C29.9202 71.4358 31.6095 71.4483 31.6095 71.4483L49.1607 72.1846L67.6986 72.9567V73.3356L67.2567 74.2213C67.2567 74.3371 66.9417 74.5561 66.833 74.5998L56.6567 78.8077L45.8104 83.2812C45.8104 83.2812 40.9886 81.1882 38.1477 79.91C36.7273 79.2709 33.484 77.6431 32.2348 76.9158C30.9856 76.1885 25.9818 73.4055 25.492 72.7448H25.4913Z" fill="#C3BFB5"/>
<path opacity="0.45" d="M25.542 72.7507C25.2163 72.3105 28.1065 71.6452 29.1862 71.5323C29.9441 71.4531 31.6541 71.4678 31.6541 71.4678L49.1588 72.199L67.6953 72.9675V73.3457L67.2334 74.2149C67.2334 74.3268 66.9109 74.5454 66.8061 74.5877L56.652 78.7806L45.7974 83.2512C45.7974 83.2512 40.9642 81.1388 38.221 79.9047C36.8495 79.2874 33.5772 77.6435 32.3713 76.9413C31.1654 76.2391 26.0154 73.388 25.5424 72.7503L25.542 72.7507Z" fill="#C1BCB2"/>
<path opacity="0.47" d="M25.5968 72.7559C25.2825 72.3315 28.2002 71.6551 29.2413 71.5465C29.9724 71.4702 31.7028 71.4874 31.7028 71.4874L49.1614 72.2136L67.6964 72.9785V73.3556L67.2145 74.2084C67.2145 74.3163 66.8848 74.5346 66.7837 74.5751L56.652 78.7532L45.7893 83.2214C45.7893 83.2214 40.9442 81.0896 38.299 79.8996C36.9765 79.3045 33.6752 77.6442 32.5122 76.9671C31.3492 76.2899 26.0533 73.3711 25.5971 72.7559H25.5968Z" fill="#BEB9AF"/>
<path opacity="0.49" d="M25.6574 72.7625C25.355 72.3539 28.2998 71.6667 29.3023 71.562C30.0062 71.4885 31.7574 71.5083 31.7574 71.5083L49.1698 72.2291L67.7034 72.9905V73.3668L67.2011 74.2031C67.2011 74.3071 66.864 74.525 66.7667 74.5641L56.6573 78.7275L45.7863 83.1928C45.7863 83.1928 40.9294 81.0417 38.3825 79.8957C37.109 79.3226 33.7788 77.6461 32.659 76.994C31.5393 76.342 26.0968 73.355 25.6578 72.7629L25.6574 72.7625Z" fill="#BBB6AB"/>
<path opacity="0.51" d="M25.6938 72.7676C25.4028 72.3747 28.3752 71.6765 29.339 71.5758C30.0158 71.5051 31.7876 71.527 31.7876 71.527L49.1536 72.2428L67.6858 73.0006V73.3763L67.1635 74.196C67.1635 74.2961 66.8192 74.5136 66.7255 74.5513L56.6382 78.6997L45.7594 83.162C45.7594 83.162 40.8911 80.992 38.4417 79.8897C37.2172 79.3388 33.858 77.6458 32.7812 77.0189C31.7043 76.3919 26.116 73.3368 25.6934 72.7676H25.6938Z" fill="#B9B4A8"/>
<path opacity="0.53" d="M25.7536 72.7734C25.4744 72.3959 28.474 71.6869 29.3992 71.5905C30.0488 71.5227 31.8414 71.5471 31.8414 71.5471L49.1613 72.2576L67.692 73.0121V73.3867L67.1497 74.1896C67.1497 74.2853 66.7979 74.5029 66.7081 74.5391L56.6433 78.6728L45.7563 83.1327C45.7563 83.1327 40.8762 80.9433 38.5252 79.8851C37.3496 79.356 33.9615 77.6469 32.9279 77.0451C31.8943 76.4432 26.1594 73.3204 25.754 72.7737L25.7536 72.7734Z" fill="#B6B1A4"/>
<path opacity="0.55" d="M25.8087 72.7793C25.5409 72.4177 28.568 71.6979 29.455 71.6054C30.0778 71.5405 31.8908 71.5674 31.8908 71.5674L49.1645 72.2728L67.6938 73.0238V73.3977L67.1314 74.1841C67.1314 74.2759 66.7721 74.4931 66.686 74.5275L56.6434 78.6465L45.7481 83.1035C45.7481 83.1035 40.8565 80.8947 38.6031 79.8807C37.4766 79.3738 34.0594 77.6482 33.0688 77.0715C32.0781 76.4947 26.1973 73.3038 25.8087 72.7797V72.7793Z" fill="#B3AEA1"/>
<path opacity="0.57" d="M25.8599 72.7848C25.6039 72.4389 28.6582 71.708 29.5066 71.6195C30.1022 71.5575 31.9359 71.5865 31.9359 71.5865L49.1631 72.2866L67.691 73.0339V73.4067L67.1087 74.1767C67.1087 74.2645 66.7422 74.4814 66.6596 74.5144L56.6395 78.6183L45.736 83.0724C45.736 83.0724 40.8327 80.8443 38.6776 79.8743C37.6 79.3893 34.1539 77.6476 33.2061 77.0959C32.2584 76.5443 26.2317 73.2852 25.8599 72.7841V72.7848Z" fill="#B1AB9E"/>
<path opacity="0.59" d="M25.9112 72.7913C25.6667 72.4611 28.7485 71.7195 29.5583 71.6349C30.1267 71.5754 31.9811 71.6073 31.9811 71.6073L49.1623 72.3023L67.6887 73.0461V73.4182L67.086 74.1717C67.086 74.2556 66.712 74.4721 66.6334 74.5036L56.6354 78.5928L45.724 83.0445C45.724 83.0445 40.8089 80.797 38.7518 79.8711C37.7232 79.4083 34.2481 77.6501 33.3436 77.1235C32.4391 76.597 26.2659 73.2702 25.9112 72.7916V72.7913Z" fill="#AEA89A"/>
<path opacity="0.61" d="M25.9665 72.7969C25.7338 72.4826 28.8427 71.7298 29.6139 71.6492C30.1552 71.5925 32.0303 71.6269 32.0303 71.6269L49.1653 72.317L67.6907 73.0572V73.4282L67.068 74.1651C67.068 74.2451 66.6865 74.4612 66.6118 74.4913L56.6364 78.5659L45.7168 83.0146C45.7168 83.0146 40.7902 80.7478 38.8306 79.866C37.851 79.4251 34.347 77.6507 33.4854 77.1493C32.6238 76.6478 26.3047 73.2529 25.9669 72.7973L25.9665 72.7969Z" fill="#ABA597"/>
<path opacity="0.63" d="M26.018 72.8032C25.7967 72.5046 28.9332 71.7407 29.6657 71.6644C30.1802 71.6106 32.0757 71.6472 32.0757 71.6472L49.1643 72.3318L67.6882 73.0684V73.4387L67.0454 74.1592C67.0454 74.2352 66.6568 74.451 66.5857 74.4793L56.6324 78.5388L45.7046 82.9847C45.7046 82.9847 40.7662 80.6985 38.905 79.8608C37.9744 79.4421 34.4414 77.6512 33.6231 77.1749C32.8047 76.6985 26.339 73.2355 26.018 72.8028V72.8032Z" fill="#A8A294"/>
<path opacity="0.65" d="M26.0734 72.809C25.8639 72.5261 29.0276 71.7515 29.7215 71.6791C30.2088 71.6282 32.1251 71.6673 32.1251 71.6673L49.1675 72.3469L67.69 73.0799V73.4492L67.0272 74.1532C67.0272 74.2252 66.6311 74.4406 66.5639 74.4675L56.6332 78.5123L45.6971 82.9557C45.6971 82.9557 40.7473 80.6501 38.9837 79.8565C38.102 79.4597 34.5401 77.6527 33.7647 77.2014C32.9892 76.7502 26.3777 73.2194 26.0734 72.8093V72.809Z" fill="#A69F90"/>
<path opacity="0.67" d="M26.125 72.8152C25.9273 72.5478 29.1181 71.7624 29.7738 71.6939C30.2339 71.6459 32.171 71.6875 32.171 71.6875L49.1669 72.3617L67.688 73.0912V73.4597L67.0052 74.1472C67.0052 74.2149 66.6019 74.4304 66.5382 74.4558L56.6297 78.4859L45.6858 82.9264C45.6858 82.9264 40.7242 80.6015 39.0589 79.852C38.2262 79.4774 34.6353 77.6539 33.9031 77.2277C33.1709 76.8015 26.4128 73.2027 26.1257 72.8155L26.125 72.8152Z" fill="#A39C8D"/>
<path opacity="0.69" d="M26.1806 72.8201C25.9944 72.5685 29.2127 71.7724 29.8298 71.7078C30.2631 71.6627 32.2201 71.7064 32.2201 71.7064L49.17 72.3756L67.6896 73.1015V73.4689L66.9864 74.1396C66.9864 74.2034 66.5756 74.4185 66.5156 74.4425L56.6292 78.4575L45.677 82.8952C45.677 82.8952 40.7036 80.5509 39.1363 79.8454C38.3526 79.4927 34.7328 77.6531 34.0435 77.252C33.3542 76.8509 26.4502 73.1843 26.1799 72.8198L26.1806 72.8201Z" fill="#A0998A"/>
<path opacity="0.71" d="M26.2324 72.8262C26.0579 72.5904 29.3034 71.7831 29.8819 71.7225C30.288 71.6802 32.2658 71.7265 32.2658 71.7265L49.1695 72.3903L67.6878 73.1126V73.4793L66.9645 74.1335C66.9645 74.1934 66.5462 74.4081 66.4901 74.4303L56.6262 78.4306L45.6659 82.8658C45.6659 82.8658 40.681 80.5021 39.2116 79.8408C38.4769 79.5103 34.8281 77.6542 34.1821 77.2782C33.5361 76.9022 26.4858 73.1675 26.2324 72.8259V72.8262Z" fill="#9E9786"/>
<path opacity="0.73" d="M26.2842 72.8314C26.1212 72.6113 29.3942 71.793 29.9341 71.7367C30.3131 71.6973 32.3116 71.746 32.3116 71.746L49.1688 72.4049L67.6856 73.1236V73.4892L66.9423 74.1269C66.9423 74.1828 66.5169 74.3971 66.4643 74.4179L56.6226 78.4036L45.6541 82.8359C45.6541 82.8359 40.6574 80.4529 39.286 79.8356C38.6003 79.527 34.9225 77.6548 34.3194 77.3038C33.7162 76.9529 26.5198 73.1501 26.2835 72.8314H26.2842Z" fill="#9B9483"/>
<path opacity="0.75" d="M26.34 72.8376C26.1888 72.6333 29.489 71.8042 29.9902 71.7519C30.342 71.7153 32.3613 71.7662 32.3613 71.7662L49.1724 72.42L67.6878 73.1355V73.5004L66.9245 74.1216C66.9245 74.1736 66.4915 74.3876 66.4429 74.4069L56.6237 78.3775L45.6473 82.8069C45.6473 82.8069 40.6392 80.4046 39.3654 79.8314C38.7286 79.545 35.0219 77.6563 34.462 77.3305C33.9022 77.0046 26.5595 73.1341 26.3396 72.838L26.34 72.8376Z" fill="#989180"/>
<path opacity="0.76" d="M26.392 72.8425C26.2522 72.6539 29.5799 71.8137 30.0426 71.7653C30.3676 71.7313 32.4072 71.785 32.4072 71.785L49.1722 72.4335L67.6861 73.1454V73.5092L66.9028 74.1139C66.9028 74.1619 66.4623 74.3752 66.4177 74.3935L56.6206 78.3494L45.636 82.7763C45.636 82.7763 40.6161 80.3546 39.4406 79.8255C38.8528 79.561 35.1171 77.6562 34.6002 77.3554C34.0832 77.0547 26.5943 73.116 26.3916 72.8425H26.392Z" fill="#958E7C"/>
<path opacity="0.78" d="M26.4391 72.849C26.3111 72.6762 29.6661 71.8249 30.0904 71.7808C30.3882 71.7496 32.4486 71.8059 32.4486 71.8059L49.1671 72.4493L67.68 73.1576V73.5207L66.8767 74.1089C66.8767 74.153 66.4291 74.3659 66.3879 74.3824L56.6134 78.3233L45.6206 82.7473C45.6206 82.7473 40.5892 80.3062 39.5113 79.8212C38.9725 79.5789 35.2079 77.6576 34.7338 77.382C34.2601 77.1063 26.625 73.0995 26.4391 72.849Z" fill="#938B79"/>
<path opacity="0.8" d="M26.4902 72.8549C26.3737 72.6976 29.7562 71.8359 30.1419 71.7957C30.4126 71.7674 32.4937 71.8258 32.4937 71.8258L49.166 72.4639L67.6775 73.1686V73.5306L66.8538 74.1024C66.8538 74.1422 66.3987 74.3551 66.3615 74.3701L56.6092 78.2963L45.608 82.7174C45.608 82.7174 40.5649 80.257 39.5853 79.8161C39.0955 79.5957 35.3019 77.6582 34.8711 77.4077C34.4403 77.1571 26.6594 73.0826 26.4902 72.8546V72.8549Z" fill="#908876"/>
<path opacity="0.82" d="M26.5522 72.8609C26.4474 72.7193 29.857 71.8465 30.2042 71.8103C30.448 71.7848 32.5495 71.8458 32.5495 71.8458L49.1758 72.4788L67.6858 73.1799V73.5413L66.8421 74.0962C66.8421 74.132 66.3798 74.3446 66.3458 74.3582L56.616 78.2696L45.607 82.6883C45.607 82.6883 40.5521 80.2085 39.6705 79.8117C39.2297 79.6135 35.4071 77.6595 35.0192 77.4341C34.6317 77.2082 26.7041 73.066 26.5522 72.8609Z" fill="#8D8572"/>
<path opacity="0.84" d="M26.5985 72.8666C26.5056 72.7408 29.9424 71.8572 30.2509 71.8249C30.4676 71.8023 32.5898 71.8658 32.5898 71.8658L49.1696 72.4934L67.6782 73.191V73.5512L66.8144 74.0896C66.8144 74.1215 66.3446 74.3337 66.3146 74.3459L56.607 78.2423L45.5898 82.6581C45.5898 82.6581 40.5234 80.159 39.7397 79.8063C39.3479 79.6299 35.4964 77.6598 35.1517 77.4595C34.8071 77.2587 26.7337 73.0483 26.5985 72.8662V72.8666Z" fill="#8B826F"/>
<path opacity="0.86" d="M26.6508 72.8723C26.5693 72.7623 30.0336 71.8676 30.3036 71.8393C30.4931 71.8196 32.636 71.8851 32.636 71.8851L49.1697 72.5078L67.6768 73.2017V73.5613L66.7931 74.0832C66.7931 74.1111 66.3158 74.323 66.2897 74.3337L56.6042 78.2154L45.5788 82.6284C45.5788 82.6284 40.5006 80.1099 39.8149 79.8012C39.4721 79.6471 35.5916 77.6609 35.2898 77.4853C34.9885 77.3096 26.7685 73.0315 26.6505 72.872L26.6508 72.8723Z" fill="#887F6B"/>
<path opacity="0.88" d="M26.7071 72.8785C26.6374 72.7842 30.1289 71.8784 30.3602 71.8544C30.5225 71.8375 32.6862 71.9056 32.6862 71.9056L49.1737 72.5232L67.6795 73.2136V73.5724L66.7757 74.0778C66.7757 74.1019 66.2912 74.3134 66.2687 74.3223L56.6058 78.1893L45.5725 82.5997C45.5725 82.5997 40.4829 80.0619 39.8951 79.7973C39.6012 79.6651 35.6918 77.6627 35.4333 77.5122C35.1748 77.3616 26.809 73.0154 26.7074 72.8788L26.7071 72.8785Z" fill="#857C68"/>
<path opacity="0.9" d="M26.7595 72.8836C26.7012 72.8051 30.2203 71.8885 30.4133 71.8684C30.5488 71.8544 32.7329 71.925 32.7329 71.925L49.174 72.5373L67.6783 73.2241V73.5818L66.7541 74.0707C66.7541 74.0908 66.2621 74.3019 66.2435 74.3095L56.6028 78.1614L45.5613 82.569C45.5613 82.569 40.4599 80.0118 39.9701 79.7913C39.7252 79.6813 35.7868 77.6625 35.5712 77.537C35.356 77.4115 26.8439 72.9975 26.7591 72.8836H26.7595Z" fill="#837A65"/>
<path opacity="0.92" d="M26.8022 72.8903C26.7557 72.8276 30.3019 71.8999 30.4564 71.8838C30.5647 71.8723 32.7695 71.9454 32.7695 71.9454L49.1645 72.5527L67.6673 73.2359V73.5929L66.7231 74.0653C66.7231 74.0815 66.224 74.2922 66.209 74.2983L56.5908 78.1356L45.541 82.5403C45.541 82.5403 40.4279 79.9637 40.036 79.7873C39.8401 79.6992 35.8727 77.6642 35.7004 77.5638C35.5281 77.4635 26.8698 72.9814 26.8022 72.8903Z" fill="#807761"/>
<path opacity="0.94" d="M26.8685 72.8951C26.8335 72.8478 30.4072 71.9097 30.523 71.8975C30.6042 71.8889 32.8297 71.9646 32.8297 71.9646L49.1786 72.5664L67.68 73.2464V73.6023L66.7158 74.0583C66.7158 74.0701 66.2092 74.2809 66.1978 74.2855L56.6017 78.1081L45.5437 82.5103C45.5437 82.5103 40.4191 79.9143 40.1252 79.7821C39.9783 79.7161 35.9816 77.6647 35.8525 77.5894C35.7235 77.5141 26.9189 72.9639 26.8682 72.8958L26.8685 72.8951Z" fill="#7D745E"/>
<path opacity="0.96" d="M26.9112 72.9007C26.888 72.8691 30.4889 71.9199 30.5661 71.912C30.6201 71.9063 32.8664 71.9845 32.8664 71.9845L49.1687 72.5813L67.6691 73.2577V73.6129L66.6849 74.052C66.6849 74.0599 66.1708 74.2703 66.1633 74.2732L56.5897 78.0807L45.5239 82.48C45.5239 82.48 40.3874 79.8647 40.1915 79.7765C40.0936 79.7324 36.0679 77.6649 35.9818 77.6147C35.8956 77.5645 26.9449 72.9465 26.9112 72.9007Z" fill="#7A715B"/>
<path opacity="0.98" d="M26.9688 72.9067C26.957 72.8909 30.5854 71.9307 30.624 71.9267C30.6512 71.9238 32.9178 72.0041 32.9178 72.0041L49.1741 72.5956L67.673 73.2684V73.6226L66.6688 74.0452C66.6688 74.0491 66.1475 74.2592 66.1436 74.2606L56.5922 78.0534L45.5181 82.4498C45.5181 82.4498 40.3703 79.8152 40.2723 79.7711C40.2233 79.7492 36.1687 77.6652 36.1258 77.6401C36.0829 77.615 26.9859 72.9289 26.9691 72.906L26.9688 72.9067Z" fill="#786E57"/>
<path d="M67.6711 73.6334L56.5889 78.027L45.5066 82.4209L36.2637 77.6667L27.0205 72.9129L30.6765 71.9415L49.1736 72.6108L67.6711 73.28V73.6334Z" fill="#756B54"/>
</g>
<g style="mix-blend-mode:multiply">
<path opacity="0.02" d="M10.3303 57.8527C10.7926 56.5264 13.7564 54.2112 16.6816 52.3583C18.9915 50.8976 21.2989 49.7147 22.4029 49.505C33.2453 47.4367 41.4885 47.8672 47.7662 49.6402C50.7686 50.4883 53.3252 51.6389 55.5085 52.9655C58.0118 54.4868 60.0089 56.2282 61.5391 58.0362C61.6395 58.1549 61.7386 58.281 61.8358 58.4C67.3312 65.1411 67.4971 72.8149 67.4971 72.8149L67.4467 73.8455C67.4467 73.8455 62.1036 84.6643 47.7937 87.4169C42.5822 88.4195 34.4412 87.643 26.8411 85.3472C19.241 83.0513 12.0003 79.1423 8.59565 73.8827C6.10735 70.0351 9.05471 61.5157 10.3307 57.8523L10.3303 57.8527Z" fill="#FEFEFE"/>
<path opacity="0.04" d="M10.6612 58.1542C11.1142 56.8545 14.073 54.5679 16.9585 52.7502C19.2413 51.3167 21.5215 50.1557 22.6226 49.9485C33.3281 47.9153 41.4795 48.3487 47.7067 50.0729C50.7352 50.9113 53.3172 52.0458 55.5298 53.3431C58.1114 54.8568 60.1593 56.5695 61.6591 58.3417C61.7574 58.4582 61.8543 58.5887 61.9497 58.7055C67.3353 65.3118 67.276 72.92 67.276 72.92L67.2177 73.9337C67.2177 73.9337 61.7688 84.6206 47.7453 87.318C42.6378 88.3005 34.5687 87.4929 27.1205 85.2429C19.6724 82.9929 12.4828 79.1141 9.14608 73.9595C6.70782 70.1886 9.411 61.7448 10.6616 58.1546L10.6612 58.1542Z" fill="#FDFDFD"/>
<path opacity="0.06" d="M10.9871 58.4547C11.4307 57.1815 14.3849 54.924 17.2304 53.1414C19.4863 51.7352 21.7394 50.596 22.8369 50.3917C33.4055 48.3933 41.4656 48.8292 47.6421 50.5049C50.6971 51.3337 53.3051 52.4517 55.5457 53.7196C58.2067 55.2254 60.3042 56.9101 61.7733 58.6458C61.8698 58.7598 61.9645 58.8949 62.0578 59.0093C67.3337 65.4808 67.0491 73.023 67.0491 73.023L66.983 74.0195C66.983 74.0195 61.4283 84.5745 47.6907 87.2167C42.6876 88.1791 34.6904 87.3403 27.3942 85.1362C20.098 82.9321 12.9591 79.083 9.69072 74.0338C7.30215 70.34 9.7615 61.9715 10.9867 58.4544L10.9871 58.4547Z" fill="#FCFCFC"/>
<path opacity="0.08" d="M11.3235 58.7557C11.7579 57.509 14.7071 55.2801 17.5132 53.5327C19.742 52.1534 21.9682 51.0364 23.0626 50.8346C33.4945 48.871 41.4632 49.3087 47.5885 50.9368C50.6703 51.7558 53.3045 52.8566 55.5729 54.0962C58.3136 55.5938 60.4605 57.2506 61.8988 58.95C61.9932 59.0615 62.0861 59.2013 62.1776 59.3135C67.3434 65.6502 66.8343 73.1268 66.8343 73.1268L66.7603 74.1061C66.7603 74.1061 61.0997 84.5289 47.6482 87.1162C42.7495 88.0586 34.8241 87.1886 27.6799 85.0303C20.5356 82.8721 13.4479 79.0531 10.2474 74.109C7.90854 70.4922 10.1244 62.199 11.3239 58.7554L11.3235 58.7557Z" fill="#FBFBFB"/>
<path opacity="0.1" d="M11.6644 59.0577C12.0898 57.8375 15.0336 55.6377 17.8001 53.9253C20.002 52.5732 22.2014 51.4807 23.2922 51.2792C33.5919 49.3748 41.4651 49.7891 47.5393 51.3706C50.6475 52.18 53.3089 53.2633 55.6041 54.4748C58.4253 55.9639 60.6208 57.593 62.0287 59.2566C62.1213 59.3659 62.2121 59.51 62.3015 59.6197C67.3575 65.8217 66.6231 73.2327 66.6231 73.2327L66.5413 74.1952C66.5413 74.1952 60.7745 84.486 47.6097 87.0181C42.8151 87.9404 34.9615 87.0393 27.9696 84.9269C20.9773 82.8145 13.9403 79.0253 10.8081 74.1862C8.51895 70.6461 10.491 62.4282 11.6651 59.058L11.6644 59.0577Z" fill="#FAFAFA"/>
<path opacity="0.12" d="M11.996 59.3582C12.4122 58.1646 15.3474 55.9873 18.0777 54.3162C20.2496 52.9867 22.4247 51.9214 23.5123 51.7217C33.6758 49.8571 41.4578 50.2668 47.4805 51.802C50.6156 52.6014 53.3041 53.6667 55.6262 54.8507C58.5281 56.3307 60.7719 57.9327 62.149 59.56C62.2395 59.6669 62.3285 59.8156 62.4161 59.9228C67.362 65.99 66.4028 73.3354 66.4028 73.3354L66.313 74.2807C66.313 74.2807 60.4405 84.4396 47.5617 86.9165C42.8714 87.8187 35.0897 86.8864 28.2494 84.8199C21.4094 82.7538 14.4232 78.9943 11.3589 74.2602C9.11944 70.7972 10.8477 62.6546 11.996 59.3575V59.3582Z" fill="#FAFAFA"/>
<path opacity="0.14" d="M12.3279 59.6602C12.7347 58.4931 15.6646 56.3438 18.3556 54.7085C20.5 53.4055 22.6486 52.3631 23.733 52.166C33.7606 50.3408 41.4511 50.7454 47.422 52.2352C50.5842 53.0241 53.3003 54.0712 55.6481 55.2286C58.6315 56.6994 60.9229 58.2748 62.2696 59.8656C62.3579 59.9699 62.4452 60.1233 62.5306 60.2283C67.3667 66.1607 66.1826 73.4406 66.1826 73.4406L66.0847 74.3686C66.0847 74.3686 60.1063 84.3953 47.5139 86.8173C42.9277 87.6995 35.2178 86.736 28.5298 84.7154C21.8417 82.6951 14.9063 78.9654 11.9103 74.3367C9.72087 70.9508 11.2049 62.8834 12.3279 59.6595V59.6602Z" fill="#F9F9F9"/>
<path opacity="0.16" d="M12.6728 59.9616C13.0703 58.821 15.9948 56.6997 18.6465 55.1006C20.7637 53.8242 22.8856 52.8051 23.9663 52.6098C33.8577 50.8236 41.4574 51.2233 47.3765 52.6682C50.5655 53.4467 53.3098 54.4751 55.6834 55.6061C58.7487 57.0668 61.0872 58.616 62.4032 60.171C62.4897 60.2731 62.5748 60.4308 62.6581 60.5334C67.3841 66.331 65.9752 73.5452 65.9752 73.5452L65.8693 74.4564C65.8693 74.4564 59.7851 84.3512 47.4787 86.718C42.9969 87.5801 35.3589 86.5854 28.8228 84.6107C22.2867 82.6363 15.4024 78.9364 12.4744 74.413C10.3346 71.1038 11.5752 63.1121 12.6724 59.9613L12.6728 59.9616Z" fill="#F8F8F8"/>
<path opacity="0.18" d="M13.0056 60.2617C13.3939 59.1476 16.3127 57.0542 18.9257 55.491C21.0154 54.2407 23.1108 53.2449 24.1884 53.0521C33.9436 51.305 41.4528 51.6986 47.3193 53.0994C50.5355 53.8676 53.308 54.8766 55.7066 55.9821C58.8542 57.4324 61.2395 58.9558 62.5252 60.4746C62.6095 60.5742 62.6925 60.7366 62.7743 60.837C67.3906 66.4995 65.7564 73.6485 65.7564 73.6485L65.6427 74.5424C65.6427 74.5424 59.4527 84.3053 47.4323 86.617C43.0545 87.459 35.4887 86.4327 29.1046 84.5042C22.7204 82.5758 15.8869 78.9059 13.0271 74.4876C10.9371 71.2554 11.9338 63.3386 13.0056 60.2613V60.2617Z" fill="#F7F7F7"/>
<path opacity="0.2" d="M13.3381 60.5631C13.7171 59.4756 16.6304 57.4102 19.2042 55.8828C21.2664 54.6591 23.3353 53.6866 24.4096 53.4955C34.0286 51.7871 41.4478 52.1743 47.2617 53.5321C50.5051 54.2895 53.3062 55.2792 55.7298 56.3596C58.96 57.7991 61.3918 59.2971 62.6467 60.78C62.7289 60.8775 62.81 61.0442 62.8898 61.142C67.3963 66.6698 65.5372 73.7532 65.5372 73.7532L65.4156 74.6303C65.4156 74.6303 59.1198 84.2609 47.3857 86.5177C43.1124 87.3396 35.6181 86.2822 29.3862 84.3996C23.154 82.517 16.3716 78.8769 13.5798 74.564C11.5394 71.4089 12.2924 63.5673 13.3388 60.5635L13.3381 60.5631Z" fill="#F6F6F6"/>
<path opacity="0.22" d="M13.6646 60.8647C14.0343 59.8037 16.9423 57.7662 19.4767 56.2751C21.5113 55.0778 23.5538 54.1283 24.6246 53.9397C34.1073 52.2697 41.4364 52.6504 47.1974 53.9652C50.4683 54.7115 53.2977 55.6818 55.746 56.7371C59.0594 58.1652 61.537 59.6388 62.7612 61.0851C62.8416 61.1801 62.9206 61.3515 62.9986 61.4472C67.3949 66.8401 65.311 73.8576 65.311 73.8576L65.1815 74.7175C65.1815 74.7175 58.7799 84.2162 47.3319 86.4178C43.1625 87.2196 35.7405 86.131 29.6602 84.2943C23.5799 82.4576 16.8483 78.8476 14.1244 74.6397C12.1337 71.5613 12.6428 63.7954 13.6639 60.8647H13.6646Z" fill="#F5F5F5"/>
<path opacity="0.24" d="M13.998 61.1667C14.3587 60.1322 17.261 58.1227 19.7561 56.6674C21.7636 55.4967 23.7792 54.5701 24.8468 54.3837C34.1933 52.752 41.4327 53.1255 47.1408 54.3981C50.4392 55.1332 53.2975 56.0835 55.7701 57.1148C59.1669 58.531 61.6902 59.9803 62.884 61.3904C62.9623 61.4829 63.0395 61.6589 63.1153 61.7521C67.4019 67.0102 65.0927 73.9621 65.0927 73.9621L64.9554 74.8048C64.9554 74.8048 58.4479 84.1712 47.2863 86.3183C43.2213 87.1001 35.8711 85.9803 29.9428 84.1895C24.0149 82.3987 17.334 78.8184 14.678 74.7159C12.7374 71.7146 13.0027 64.024 13.998 61.1664V61.1667Z" fill="#F4F4F4"/>
<path opacity="0.25" d="M14.337 61.4675C14.6884 60.4596 17.5854 58.478 20.0411 57.0589C22.0211 55.9147 24.0099 55.0111 25.0746 54.8272C34.2849 53.2339 41.4349 53.5995 47.0897 54.8308C50.4157 55.5548 53.303 56.485 55.7995 57.4923C59.2799 58.8963 61.8487 60.3216 63.0117 61.6959C63.0882 61.7862 63.1633 61.9665 63.2373 62.0572C67.4138 67.1806 64.88 74.0668 64.88 74.0668L64.7349 74.8927C64.7349 74.8927 58.1212 84.1272 47.2459 86.2191C43.285 86.9808 36.0067 85.8298 30.2307 84.0849C24.4547 82.3399 17.8245 78.7894 15.2368 74.7923C13.3459 71.8681 13.3674 64.2527 14.337 61.4682V61.4675Z" fill="#F3F3F3"/>
<path opacity="0.27" d="M14.6683 61.7677C15.0105 60.7862 17.902 58.8326 20.3189 57.4494C22.2716 56.3317 24.2336 55.4513 25.2948 55.2693C34.3685 53.7139 41.4294 54.0717 47.0306 55.2617C50.3841 55.9743 53.3008 56.8841 55.8212 57.8677C59.3857 59.2588 61.9995 60.6608 63.1321 61.9989C63.2064 62.0867 63.2797 62.2716 63.3516 62.3602C67.4183 67.3488 64.6594 74.1694 64.6594 74.1694L64.5064 74.9781C64.5064 74.9781 57.7869 84.0807 47.1976 86.1174C43.3411 86.8594 36.1346 85.6769 30.5106 83.9778C24.8865 82.2787 18.3075 78.7584 15.7877 74.8663C13.9465 72.0191 13.7241 64.4786 14.6683 61.7677Z" fill="#F2F2F2"/>
<path opacity="0.29" d="M15.0056 62.0702C15.3385 61.1153 18.225 59.1897 20.6022 57.8423C22.5274 56.7511 24.463 55.8937 25.5209 55.7141C34.4584 54.1964 41.43 54.5459 46.9779 55.6958C50.3593 56.3966 53.3048 57.2856 55.8493 58.2466C59.4981 59.6245 62.1566 61.0038 63.2584 62.3054C63.3307 62.3907 63.4018 62.5803 63.4719 62.6663C67.4285 67.5201 64.4447 74.2752 64.4447 74.2752L64.2834 75.0667C64.2834 75.0667 57.4581 84.037 47.1552 86.0189C43.4027 86.7408 36.2681 85.5271 30.796 83.8739C25.3239 82.2207 18.7956 78.7301 16.3442 74.943C14.5526 72.1725 14.0864 64.7077 15.0053 62.0699L15.0056 62.0702Z" fill="#F1F1F1"/>
<path opacity="0.31" d="M15.3371 62.3706C15.6607 61.4422 18.5419 59.5446 20.8797 58.2334C22.7778 57.1688 24.6865 56.3343 25.7408 56.1569C34.5418 54.6768 41.4247 55.0173 46.9187 56.1275C50.3276 56.8164 53.3028 57.6846 55.8705 58.6227C59.6037 59.9866 62.3068 61.3437 63.3783 62.6094C63.4487 62.6925 63.5177 62.8868 63.586 62.9703C67.4329 67.689 64.2242 74.3788 64.2242 74.3788L64.0551 75.1535C64.0551 75.1535 57.1239 83.9918 47.1071 85.9185C43.459 86.6204 36.3962 85.3755 31.0761 83.7682C25.7559 82.1612 19.2788 78.7004 16.8952 75.0183C15.1534 72.3249 14.4437 64.9354 15.3368 62.371L15.3371 62.3706Z" fill="#F1F1F1"/>
<path opacity="0.33" d="M15.6677 62.6715C15.9819 61.7696 18.8578 59.8999 21.1563 58.6245C23.0271 57.5864 24.9088 56.7749 25.9602 56.6C34.6246 55.1572 41.4192 55.4884 46.8591 56.5595C50.2963 57.2362 53.3005 58.0836 55.8918 58.9995C59.7097 60.349 62.4572 61.6843 63.4979 62.9138C63.5662 62.9944 63.6334 63.1934 63.6996 63.2744C67.4367 67.8583 64.0027 74.4825 64.0027 74.4825L63.8258 75.2399C63.8258 75.2399 56.7888 83.9464 47.0579 85.8179C43.5142 86.4997 36.5234 85.2236 31.3551 83.6621C26.1869 82.1011 19.7605 78.67 17.4453 75.0933C15.7531 72.477 14.7996 65.1627 15.6673 62.6715H15.6677Z" fill="#F0F0F0"/>
<path opacity="0.35" d="M16.008 62.9729C16.313 62.0975 19.1835 60.2562 21.4426 59.0163C23.286 58.0047 25.1411 57.2161 26.1893 57.0433C34.7172 55.6375 41.4235 55.9594 46.8094 56.9921C50.2745 57.6563 53.3083 58.4825 55.9225 59.3769C59.8251 60.7118 62.617 62.0255 63.627 63.2188C63.6935 63.2973 63.7585 63.5005 63.8229 63.579C67.4499 68.0282 63.7914 74.5868 63.7914 74.5868L63.6066 75.327C63.6066 75.327 56.4638 83.9012 47.0193 85.7178C43.5796 86.3795 36.6606 85.0719 31.6447 83.5567C26.6287 82.0415 20.2532 78.6405 18.0058 75.1689C16.3637 72.6293 15.1661 65.3903 16.0084 62.9725L16.008 62.9729Z" fill="#EFEFEF"/>
<path opacity="0.37" d="M16.3382 63.2744C16.6342 62.4256 19.4993 60.6121 21.7192 59.4085C23.5353 58.4234 25.3637 57.6578 26.4083 57.4875C34.7996 56.1186 41.4176 56.4308 46.7492 57.4251C50.2421 58.0768 53.3057 58.8819 55.9431 59.7544C59.9308 61.0738 62.7666 62.3671 63.7462 63.5242C63.8106 63.6002 63.8738 63.8081 63.9361 63.8845C67.4533 68.1988 63.5696 74.6918 63.5696 74.6918L63.3769 75.4152C63.3769 75.4152 56.1283 83.8575 46.9698 85.6189C43.6345 86.2606 36.7874 84.9217 31.9234 83.4524C27.0594 81.9831 20.7346 78.6119 18.5555 75.2456C16.9631 72.7831 15.5216 65.6194 16.3385 63.2747L16.3382 63.2744Z" fill="#EEEEEE"/>
<path opacity="0.39" d="M16.6755 63.5759C16.9623 62.7536 19.822 60.9685 22.0025 59.8003C23.7915 58.8418 25.5931 58.099 26.6345 57.9309C34.8892 56.5986 41.4192 56.9004 46.6965 57.8578C50.2177 58.4966 53.3106 59.2805 55.9708 60.1318C60.044 61.4355 62.9234 62.7084 63.8723 63.8293C63.9345 63.9028 63.996 64.1153 64.056 64.1892C67.4632 68.3687 63.3546 74.7958 63.3546 74.7958L63.154 75.502C63.154 75.502 55.7996 83.8124 46.9275 85.5186C43.6962 86.1402 36.921 84.7701 32.2089 83.3467C27.4968 81.9233 21.2231 78.5818 19.112 75.3209C17.5693 72.9354 15.8844 65.847 16.6755 63.5755V63.5759Z" fill="#EDEDED"/>
<path opacity="0.41" d="M17.0045 63.8773C17.2819 63.0815 20.1367 61.3244 22.2775 60.1924C24.0393 59.2608 25.8137 58.5406 26.8519 58.375C34.9696 57.0792 41.4121 57.3706 46.6347 58.2908C50.1841 58.9163 53.3066 59.6791 55.9898 60.5096C60.148 61.7968 63.0714 63.05 63.9899 64.135C64.0503 64.2063 64.1097 64.4232 64.1679 64.4949C67.4653 68.5397 63.1319 74.9012 63.1319 74.9012L62.9234 75.5901C62.9234 75.5901 55.4628 83.7682 46.8771 85.4196C43.7502 86.0211 37.0468 84.6199 32.4867 83.2424C27.9266 81.8648 21.7037 78.5535 19.6608 75.3976C18.1678 73.0888 16.239 66.076 17.0045 63.8776V63.8773Z" fill="#ECECEC"/>
<path opacity="0.43" d="M17.3423 64.1775C17.6104 63.4083 20.4602 61.6795 22.5613 60.583C24.296 59.6779 26.0435 58.9807 27.0785 58.8172C35.0597 57.5576 41.4142 57.8379 46.5824 58.7219C50.1601 59.3338 53.3123 60.0754 56.018 60.8851C60.2621 62.1555 63.2287 63.3893 64.1164 64.4381C64.1747 64.507 64.2319 64.7285 64.2884 64.7977C67.4757 68.7077 62.9173 75.0036 62.9173 75.0036L62.701 75.6757C62.701 75.6757 55.1346 83.7219 46.8348 85.3181C43.8121 85.8995 37.1808 84.4671 32.7727 83.1354C28.3645 81.8038 22.1927 78.5221 20.2178 75.4717C18.7745 73.24 16.6019 66.3021 17.3419 64.1775H17.3423Z" fill="#EBEBEB"/>
<path opacity="0.45" d="M17.669 64.4789C17.9279 63.7362 20.7723 62.0357 22.8344 60.9747C24.5419 60.0961 26.2626 59.4218 27.2944 59.2609C35.1387 58.0371 41.4059 58.3067 46.5191 59.1548C50.1254 59.753 53.3069 60.4732 56.0355 61.2628C60.365 62.5156 63.3753 63.7312 64.2322 64.7434C64.2884 64.8097 64.3438 65.0359 64.3985 65.1026C67.476 68.8778 62.6924 75.1081 62.6924 75.1081L62.4682 75.763C62.4682 75.763 54.796 83.6773 46.7826 85.2183C43.8642 85.7796 37.3045 84.3161 33.0486 83.0303C28.7924 81.7445 22.6714 78.493 20.7647 75.5476C19.3715 73.3929 16.9547 66.5303 17.6694 64.4789H17.669Z" fill="#EAEAEA"/>
<path opacity="0.47" d="M18.0001 64.7811C18.2496 64.0649 21.089 62.3927 23.1115 61.3675C24.7918 60.5158 26.4853 59.8638 27.5139 59.7054C35.2212 58.5174 41.4012 58.7755 46.4597 59.5881C50.0942 60.1721 53.3055 60.8714 56.0565 61.6407C60.4719 62.8755 63.5254 64.0728 64.352 65.0492C64.4063 65.1133 64.4596 65.3438 64.5121 65.4084C67.4799 69.0485 62.4714 75.2135 62.4714 75.2135L62.2391 75.8512C62.2391 75.8512 54.4609 83.6332 46.7336 85.1197C43.9192 85.661 37.4317 84.1662 33.3275 82.9263C29.2235 81.6864 23.1533 78.4647 21.3146 75.6243C19.971 73.5463 17.3108 66.7594 17.9997 64.7811H18.0001Z" fill="#E9E9E9"/>
<path opacity="0.49" d="M18.3423 65.0818C18.5826 64.3922 21.417 62.7483 23.3997 61.7586C25.0529 60.9334 26.7196 60.3044 27.745 60.1484C35.3158 58.996 41.4085 59.2423 46.412 60.0201C50.0751 60.5897 53.3156 61.2675 56.0896 62.0174C60.5907 63.234 63.6878 64.4133 64.4833 65.3535C64.5355 65.4152 64.587 65.6503 64.6374 65.7123C67.495 69.2177 62.2617 75.3171 62.2617 75.3171L62.0215 75.938C62.0215 75.938 54.1375 83.5881 46.6965 85.0194C43.9866 85.5406 37.5706 84.0146 33.6186 82.8206C29.6666 81.6266 23.6472 78.4346 21.8767 75.6996C20.5829 73.6987 17.6788 66.987 18.3423 65.0818Z" fill="#E8E8E8"/>
<path opacity="0.51" d="M18.6727 65.3827C18.904 64.7196 21.733 63.104 23.6761 62.1498C25.3021 61.3515 26.942 60.745 27.9638 60.5913C35.3976 59.474 41.4032 59.7084 46.3516 60.4522C50.0433 61.0071 53.3135 61.6638 56.1096 62.3943C60.6965 63.5922 63.837 64.754 64.602 65.658C64.6524 65.7175 64.7018 65.957 64.7504 66.0168C67.4983 69.3874 62.0397 75.4212 62.0397 75.4212L61.7916 76.0248C61.7916 76.0248 53.8018 83.5431 46.6469 84.9192C44.0409 85.4203 37.6972 83.8631 33.8972 82.715C30.0971 81.5673 24.1287 78.405 22.4263 75.775C21.1821 73.8512 18.0342 67.2144 18.6723 65.3827H18.6727Z" fill="#E8E8E8"/>
<path opacity="0.53" d="M19.008 65.6836C19.23 65.047 22.054 63.4597 23.9574 62.5414C25.5562 61.77 27.169 61.1857 28.1879 61.0348C35.4848 59.9526 41.4035 60.1749 46.2968 60.8846C50.0171 61.4241 53.3166 62.0603 56.1356 62.7712C60.8083 63.9497 63.992 65.095 64.7264 65.9628C64.7746 66.0198 64.8222 66.2639 64.8687 66.3213C67.5064 69.557 61.8233 75.5253 61.8233 75.5253L61.5673 76.1121C61.5673 76.1121 53.4718 83.498 46.6028 84.8193C44.1013 85.3003 37.8294 83.7117 34.1813 82.6098C30.5332 81.5079 24.6156 78.3754 22.9814 75.8508C21.7869 74.0037 18.3952 67.4425 19.008 65.6839V65.6836Z" fill="#E7E7E7"/>
<path opacity="0.55" d="M19.3364 65.9862C19.5491 65.3761 22.3685 63.8172 24.2322 62.9343C25.8042 62.1894 27.3898 61.6281 28.4055 61.4793C35.5651 60.4319 41.3973 60.642 46.2352 61.3184C49.9841 61.8425 53.3129 62.4576 56.1548 63.1497C60.9137 64.3086 64.1403 65.4374 64.8442 66.269C64.8903 66.3235 64.9357 66.5723 64.9808 66.6271C67.5088 69.7281 61.6005 75.6304 61.6005 75.6304L61.3366 76.2C61.3366 76.2 53.1352 83.454 46.5526 84.72C44.1555 85.181 37.9551 83.5612 34.459 82.5052C30.9628 81.4492 25.0963 78.3467 23.5301 75.9272C22.3856 74.1571 18.7501 67.6713 19.3371 65.9862H19.3364Z" fill="#E6E6E6"/>
<path opacity="0.57" d="M19.6757 66.2866C19.8791 65.703 22.6935 64.1728 24.5175 63.3254C26.0623 62.6074 27.6207 62.0683 28.6332 61.9224C35.6559 60.9094 41.4012 61.1069 46.184 61.7504C49.9615 62.2587 53.32 62.8533 56.1841 63.5265C61.0292 64.6653 64.2986 65.778 64.9718 66.5737C65.0162 66.6261 65.0594 66.8791 65.1023 66.9318C67.5202 69.898 61.387 75.7347 61.387 75.7347L61.1153 76.2871C61.1153 76.2871 52.8077 83.4089 46.5115 84.6201C44.2184 85.0613 38.0902 83.4099 34.746 82.3998C31.4018 81.3897 25.5861 78.317 24.0881 76.0028C22.9934 74.3099 19.114 67.8993 19.6753 66.2873L19.6757 66.2866Z" fill="#E5E5E5"/>
<path opacity="0.59" d="M20.0068 66.5876C20.2009 66.0305 23.0107 64.5286 24.7947 63.7167C26.3127 63.0256 27.8439 62.5087 28.8532 62.3654C35.7389 61.3864 41.3977 61.5714 46.1248 62.1822C49.9312 62.6743 53.3187 63.2482 56.2056 63.9028C61.1365 65.0208 64.4492 66.118 65.0917 66.8776C65.1339 66.9274 65.1753 67.1851 65.2161 67.2353C67.5242 70.0667 61.1662 75.8378 61.1662 75.8378L60.8866 76.3734C60.8866 76.3734 52.4732 83.3632 46.4633 84.5192C44.2746 84.9404 38.2183 83.2578 35.026 82.2936C31.8341 81.3293 26.0692 78.2868 24.6391 76.0776C23.5941 74.4617 19.4709 68.1261 20.0068 66.5876Z" fill="#E4E4E4"/>
<path opacity="0.61" d="M20.3431 66.8885C20.5279 66.358 23.3327 64.8847 25.077 64.108C26.5678 63.4441 28.0722 62.9491 29.0779 62.8086C35.8264 61.8637 41.3986 62.0354 46.0707 62.6146C49.9057 63.0899 53.3229 63.6438 56.232 64.28C61.249 65.3769 64.6046 66.4594 65.2167 67.1824C65.2567 67.2297 65.2964 67.4921 65.3354 67.5401C67.5338 70.2368 60.9505 75.9423 60.9505 75.9423L60.663 76.4606C60.663 76.4606 52.1438 83.3186 46.42 84.4194C44.3353 84.8205 38.3508 83.1067 35.3109 82.1884C32.2709 81.27 26.5567 78.2572 25.195 76.1534C24.1996 74.6142 19.8326 68.3542 20.3431 66.8888V66.8885Z" fill="#E3E3E3"/>
<path opacity="0.63" d="M20.6801 67.1907C20.8557 66.6867 23.6557 65.2422 25.36 64.5009C26.824 63.8639 28.3009 63.3911 29.3038 63.2531C35.9149 62.3423 41.401 62.5007 46.0176 63.0481C49.8817 63.5065 53.3278 64.0403 56.2597 64.6579C61.3629 65.7333 64.7615 66.8011 65.3428 67.4882C65.381 67.5334 65.4186 67.8005 65.4554 67.8456C67.5437 70.4071 60.7355 76.0474 60.7355 76.0474L60.4402 76.5485C60.4402 76.5485 51.8151 83.2742 46.3773 84.3201C44.397 84.7012 38.4844 82.9562 35.5964 82.0838C32.7084 81.2113 27.0453 78.2282 25.7515 76.2299C24.8059 74.7677 20.1953 68.583 20.6801 67.1907Z" fill="#E2E2E2"/>
<path opacity="0.65" d="M21.0175 67.4915C21.1838 67.014 23.9792 65.5985 25.6438 64.892C27.081 64.2819 28.5307 63.8313 29.5303 63.6958C36.0046 62.8183 41.4038 62.9635 45.965 63.48C49.858 63.9209 53.333 64.4349 56.2875 65.0346C61.4769 66.0881 64.9183 67.1416 65.4693 67.7926C65.5054 67.8352 65.5411 68.1069 65.5762 68.1496C67.5546 70.5763 60.5216 76.151 60.5216 76.151L60.2181 76.6353C60.2181 76.6353 51.4872 83.229 46.3357 84.2198C44.4595 84.5808 38.6187 82.8046 35.8827 81.978C33.1466 81.1514 27.5343 78.1985 26.3088 76.3048C25.4132 74.9197 20.5585 68.8102 21.0179 67.4911L21.0175 67.4915Z" fill="#E1E1E1"/>
<path opacity="0.67" d="M21.3416 67.7922C21.4989 67.3412 24.2893 65.9544 25.9139 65.283C27.3243 64.7001 28.7465 64.2714 29.7429 64.1388C36.0798 63.2946 41.3929 63.4262 45.8986 63.9119C49.8206 64.3349 53.325 64.8292 56.302 65.4113C61.5775 66.4426 65.0618 67.4821 65.582 68.0968C65.6163 68.1373 65.65 68.4134 65.6828 68.4539C67.5512 70.7458 60.2933 76.2549 60.2933 76.2549L59.9819 76.7219C59.9819 76.7219 51.1452 83.1838 46.2797 84.1194C44.5079 84.4602 38.739 82.6529 36.1549 81.8722C33.5708 81.0915 28.0096 78.1683 26.852 76.38C26.0061 75.0716 20.9076 69.0374 21.3416 67.7922Z" fill="#E0E0E0"/>
<path opacity="0.69" d="M21.6763 68.0944C21.8243 67.67 24.6101 66.3122 26.1946 65.676C27.5782 65.1204 28.9732 64.7135 29.9664 64.5834C36.1661 63.7722 41.3929 63.8901 45.8429 64.3454C49.7938 64.7497 53.3272 65.225 56.3267 65.7892C61.688 66.7979 65.2156 67.8242 65.7051 68.4027C65.7373 68.4407 65.7687 68.7214 65.7998 68.7594C67.5584 70.9165 60.0753 76.36 60.0753 76.36L59.756 76.8099C59.756 76.8099 50.8135 83.1395 46.2341 84.0202C44.5662 84.341 38.8696 82.5025 36.4374 81.7677C34.0052 81.0328 28.4948 78.1397 27.4055 76.4564C26.6093 75.2252 21.2669 69.2662 21.6756 68.0941L21.6763 68.0944Z" fill="#DFDFDF"/>
<path opacity="0.71" d="M22.0096 68.3948C22.1483 67.9969 24.9294 66.6681 26.4739 66.0666C27.8307 65.5383 29.1982 65.1533 30.1885 65.026C36.2509 64.2475 41.3913 64.3514 45.7862 64.7773C49.7661 65.1626 53.3284 65.6193 56.3508 66.1659C61.7983 67.1513 65.3688 68.1647 65.8278 68.707C65.8579 68.7425 65.8875 69.0278 65.9168 69.0637C67.5653 71.0861 59.8577 76.4636 59.8577 76.4636L59.5305 76.8966C59.5305 76.8966 50.4822 83.0943 46.1891 83.9198C44.6257 84.2205 39.0006 82.3508 36.7207 81.6619C34.4408 80.9733 28.9812 78.1096 27.9598 76.5317C27.2133 75.3775 21.6274 69.4938 22.01 68.3948H22.0096Z" fill="#DFDFDF"/>
<path opacity="0.73" d="M22.3456 68.6955C22.475 68.3241 25.2518 67.0244 26.7559 66.458C28.0862 65.9569 29.4262 65.5934 30.4129 65.469C36.338 64.7227 41.3922 64.8131 45.7317 65.2092C49.7406 65.5752 53.3318 66.0132 56.3768 66.5423C61.9104 67.5044 65.5238 68.5048 65.9521 69.0109C65.9804 69.0443 66.0079 69.3339 66.0351 69.3672C67.5738 71.2548 59.6409 76.5668 59.6409 76.5668L59.3059 76.9826C59.3059 76.9826 50.1514 83.0483 46.1447 83.819C44.6853 84.0997 39.1324 82.1984 37.0041 81.5557C34.8761 80.913 29.4673 78.0794 28.5141 76.6066C27.8173 75.5291 21.9877 69.721 22.3448 68.6951L22.3456 68.6955Z" fill="#DEDEDE"/>
<path opacity="0.75" d="M22.6794 68.9973C22.7995 68.6525 25.5717 67.3822 27.0361 66.8502C28.3396 66.3767 29.652 66.0344 30.6359 65.9132C36.4237 65.1992 41.3918 65.2752 45.6755 65.6426C49.7133 65.9885 53.3335 66.4086 56.4013 66.9205C62.0211 67.8585 65.6774 68.8468 66.0754 69.3171C66.1014 69.3479 66.1272 69.6422 66.1526 69.673C67.5816 71.4259 59.4238 76.6722 59.4238 76.6722L59.0809 77.0708C59.0809 77.0708 49.8205 83.0043 46.1002 83.7201C44.7452 83.9807 39.2638 82.0483 37.2878 81.4515C35.3118 80.8546 29.9541 78.0508 29.0689 76.6833C28.4222 75.6829 22.3483 69.9498 22.6801 68.9973H22.6794Z" fill="#DDDDDD"/>
<path opacity="0.76" d="M23.0118 69.298C23.1226 68.9797 25.8905 67.7388 27.3145 67.2412C28.5915 66.7953 29.8764 66.4745 30.8567 66.3558C36.5069 65.6737 41.3888 65.7357 45.6175 66.0741C49.6842 66.3996 53.3334 66.8018 56.4238 67.2968C62.1294 68.2105 65.8289 69.1873 66.1961 69.621C66.22 69.6497 66.244 69.9483 66.2672 69.9769C67.5861 71.595 59.2034 76.7757 59.2034 76.7757L58.8527 77.1575C58.8527 77.1575 49.4865 82.959 46.0522 83.6197C44.8013 83.8602 39.3921 81.8966 37.568 81.3456C35.744 80.7947 30.437 78.0206 29.6201 76.7585C29.023 75.8351 22.7054 70.1773 23.0118 69.298Z" fill="#DCDCDC"/>
<path opacity="0.78" d="M23.3473 69.5994C23.4488 69.3076 26.2124 68.0961 27.596 67.6333C28.8462 67.215 30.1036 66.9153 31.081 66.7999C36.5939 66.1493 41.3897 66.197 45.5626 66.507C49.6583 66.8114 53.3364 67.1963 56.4496 67.6742C62.2414 68.5635 65.9839 69.5284 66.3207 69.9263C66.3428 69.9525 66.3646 70.2557 66.3861 70.2819C67.5952 71.7648 58.9873 76.8803 58.9873 76.8803L58.6287 77.2449C58.6287 77.2449 49.1567 82.9145 46.0084 83.52C44.8618 83.7404 39.5245 81.7456 37.8524 81.2406C36.1803 80.7355 30.9244 77.9915 30.1755 76.8344C29.6281 75.9878 23.067 70.4056 23.3476 69.5994H23.3473Z" fill="#DBDBDB"/>
<path opacity="0.8" d="M23.6827 69.9007C23.7753 69.6355 26.5342 68.4536 27.8774 68.0249C29.1012 67.6346 30.3307 67.3553 31.3053 67.2432C36.6809 66.6241 41.3901 66.6571 45.508 66.9395C49.6326 67.2224 53.3397 67.5901 56.4758 68.0515C62.3534 68.9157 66.1391 69.8695 66.4451 70.2312C66.4652 70.2549 66.4852 70.5628 66.5045 70.5868C67.6035 71.9349 58.7711 76.9848 58.7711 76.9848L58.4046 77.3322C58.4046 77.3322 48.8268 82.8696 45.9649 83.4202C44.9227 83.6205 39.6569 81.5946 38.1371 81.1354C36.6169 80.6762 31.4118 77.962 30.7311 76.9103C30.2334 76.1407 23.4285 70.6338 23.6838 69.9011L23.6827 69.9007Z" fill="#DADADA"/>
<path opacity="0.82" d="M24.0111 70.2018C24.0944 69.9631 26.8491 68.811 28.1522 68.4163C29.3495 68.054 30.5515 67.7955 31.5225 67.6865C36.7605 67.0983 41.3835 67.117 45.446 67.3718C49.5992 67.6324 53.3353 67.9841 56.4943 68.4285C62.4576 69.2677 66.2866 70.2104 66.5619 70.5359C66.5801 70.5574 66.5977 70.8696 66.6152 70.8911C67.6044 72.1045 58.5468 77.0888 58.5468 77.0888L58.1721 77.4193C58.1721 77.4193 48.4884 82.8247 45.9125 83.3201C44.9744 83.5004 39.7808 81.4433 38.4125 81.03C37.0447 80.6167 31.8904 77.9326 31.2773 76.9855C30.8293 76.293 23.7805 70.861 24.0104 70.2018H24.0111Z" fill="#D9D9D9"/>
<path opacity="0.84" d="M24.3564 70.5029C24.4304 70.2907 27.1808 69.1687 28.4435 68.8081C29.6144 68.4737 30.7885 68.2357 31.7566 68.1299C36.8573 67.5725 41.3938 67.5768 45.4012 67.8041C49.5834 68.0418 53.3484 68.3776 56.5303 68.8053C62.5798 69.6186 66.4517 70.5513 66.6966 70.8406C66.7127 70.8596 66.7285 71.1764 66.7442 71.1954C67.6233 72.274 58.3408 77.1927 58.3408 77.1927L57.9582 77.506C57.9582 77.506 48.1687 82.7792 45.8792 83.2198C45.0455 83.38 39.9234 81.2916 38.7074 80.9242C37.4915 80.5568 32.388 77.9025 31.8431 77.0608C31.4449 76.445 24.1523 71.0886 24.3568 70.5025L24.3564 70.5029Z" fill="#D8D8D8"/>
<path opacity="0.86" d="M24.6851 70.8045C24.7498 70.6188 27.4959 69.5269 28.7183 69.2C29.8627 68.8939 31.0092 68.6763 31.9738 68.5738C36.9368 68.0469 41.3872 68.0365 45.3395 68.2372C49.5507 68.4512 53.3443 68.7717 56.5491 69.1832C62.6844 69.9707 66.5995 70.893 66.8137 71.1461C66.8276 71.1626 66.8416 71.4841 66.8552 71.5009C67.6245 72.4448 58.1171 77.2975 58.1171 77.2975L57.7267 77.5936C57.7267 77.5936 47.8314 82.7349 45.8279 83.1202C45.0982 83.2607 40.0483 81.1408 38.9843 80.8193C37.9203 80.4978 32.8679 77.8732 32.391 77.1369C32.0428 76.5982 24.5064 71.3171 24.6848 70.8041L24.6851 70.8045Z" fill="#D7D7D7"/>
<path opacity="0.88" d="M25.0169 71.1052C25.0723 70.9461 27.8141 69.8847 28.996 69.5915C30.114 69.314 31.2326 69.1162 32.1944 69.0169C37.0201 68.5201 41.3836 68.495 45.2809 68.6692C49.521 68.8588 53.3432 69.1649 56.5712 69.5596C62.792 70.3206 66.7508 71.2332 66.9345 71.4501C66.9467 71.4644 66.9585 71.7902 66.9703 71.8046C67.6299 72.6136 57.8972 77.4007 57.8972 77.4007L57.499 77.68C57.499 77.68 47.4975 82.6894 45.7803 83.0195C45.155 83.1399 40.177 80.9889 39.265 80.7132C38.3529 80.4376 33.3513 77.8431 32.9426 77.2118C32.6441 76.7501 24.8639 71.5443 25.0169 71.1045V71.1052Z" fill="#D6D6D6"/>
<path opacity="0.9" d="M25.3544 71.4076C25.4005 71.2749 28.138 70.244 29.2796 69.9841C30.3711 69.7354 31.4618 69.5569 32.4207 69.4615C37.1088 68.9944 41.3858 68.955 45.2283 69.1031C49.4971 69.2676 53.3482 69.5597 56.5991 69.9383C62.9057 70.6727 66.9077 71.5757 67.0608 71.7567C67.0708 71.7685 67.0808 72.099 67.0904 72.1112C67.6399 72.7855 57.6824 77.507 57.6824 77.507L57.2763 77.769C57.2763 77.769 47.1689 82.6462 45.7382 82.9214C45.2169 83.0218 40.3107 80.8392 39.5506 80.6098C38.7906 80.3804 33.84 77.8153 33.4993 77.2894C33.2505 76.9048 25.2264 71.7743 25.354 71.4076H25.3544Z" fill="#D6D6D6"/>
<path opacity="0.92" d="M25.6816 71.7073C25.7184 71.6012 28.452 70.6012 29.5531 70.3743C30.6185 70.1545 31.6814 69.995 32.6367 69.9032C37.1875 69.4659 41.3776 69.4114 45.1651 69.5337C49.4625 69.6724 53.3426 69.9513 56.6167 70.3137C63.0091 71.0213 67.0544 71.9152 67.177 72.0597C67.1849 72.069 67.1931 72.4042 67.2006 72.4138C67.6404 72.9533 57.458 77.6093 57.458 77.6093L57.044 77.8545C57.044 77.8545 46.8308 82.5997 45.686 82.8198C45.2692 82.9001 40.4348 80.6862 39.8267 80.5027C39.2186 80.3192 34.3188 77.7842 34.0464 77.3634C33.8473 77.0555 25.5794 72.0002 25.6816 71.7073Z" fill="#D5D5D5"/>
<path opacity="0.94" d="M26.0288 72.0093C26.0567 71.9298 28.7856 70.9609 29.8464 70.7669C30.8853 70.5766 31.9203 70.4357 32.8728 70.3479C37.2859 69.9396 41.3895 69.8708 45.1223 69.9672C49.4483 70.0791 53.3573 70.3454 56.6543 70.6917C63.1322 71.372 67.2211 72.257 67.313 72.3656C67.319 72.3728 67.3248 72.7126 67.3308 72.7194C67.6605 73.1238 57.2532 77.7145 57.2532 77.7145L56.8313 77.9425C56.8313 77.9425 46.5123 82.5558 45.6536 82.7206C45.3408 82.7809 40.5783 80.5359 40.1225 80.3982C39.6666 80.2606 34.8176 77.7554 34.6131 77.4399C34.4637 77.2091 25.9523 72.2291 26.0288 72.0093Z" fill="#D4D4D4"/>
<path opacity="0.96" d="M26.3528 72.3102C26.3714 72.2571 29.096 71.3198 30.1163 71.1581C31.1288 70.9975 32.1359 70.8749 33.0851 70.7907C37.361 70.4114 41.3774 70.3279 45.0558 70.3992C49.4104 70.4838 53.3481 70.738 56.6687 71.0685C63.2319 71.7216 67.3645 72.5976 67.4256 72.67C67.4295 72.6747 67.4335 73.0192 67.4374 73.0238C67.6573 73.2934 57.0248 77.8185 57.0248 77.8185L56.595 78.0293C56.595 78.0293 46.1702 82.5103 45.5978 82.6207C45.3894 82.6609 40.6988 80.3847 40.3949 80.2929C40.091 80.2012 35.2928 77.726 35.1566 77.5156C35.0572 77.3618 26.3016 72.4571 26.3528 72.3105V72.3102Z" fill="#D3D3D3"/>
<path opacity="0.98" d="M26.6904 72.612C26.6997 72.5854 29.4201 71.68 30.4 71.5502C31.386 71.4198 32.3653 71.3133 33.3116 71.2348C37.4495 70.8778 41.3793 70.786 45.0031 70.8322C49.3859 70.8885 53.3532 71.1269 56.6964 71.4463C63.3462 72.0617 67.5212 72.9392 67.552 72.9754C67.5541 72.9779 67.5559 73.3267 67.5581 73.3289C67.6678 73.4637 56.8108 77.9232 56.8108 77.9232L56.3732 78.1171C56.3732 78.1171 45.8426 82.4662 45.5562 82.5214C45.4518 82.5415 40.8334 80.2341 40.6815 80.1882C40.5295 80.1424 35.7824 77.697 35.7141 77.592C35.6644 77.5149 26.665 72.6858 26.6908 72.6123L26.6904 72.612Z" fill="#D2D2D2"/>
<path d="M67.6695 73.6341L56.5873 78.028L45.505 82.4219L36.2618 77.6678L27.0186 72.9136C27.0186 72.9136 29.7342 72.0397 30.6742 71.9425C35.703 71.4174 40.5298 71.2385 44.9408 71.2654C49.3519 71.2923 53.3478 71.5253 56.7149 71.8239C63.4491 72.4211 67.6688 73.281 67.6688 73.281V73.6344L67.6695 73.6341Z" fill="#D1D1D1"/>
</g>
<g style="mix-blend-mode:multiply">
<path opacity="0.02" d="M7.71553 61.8046C7.83888 54.1438 21.5317 57.7975 21.6036 57.8007C21.6075 57.8007 22.6747 58.147 22.6786 58.1473C22.7555 58.1516 44.5518 65.2307 44.633 65.2444C44.7946 65.2723 67.2105 72.5593 67.2105 72.5593L67.7081 72.7282L67.4493 76.0786C67.4493 76.0786 54.7174 84.9303 47.0791 85.8737C47.0791 85.8737 34.7534 84.984 24.6782 82.2559C19.8418 80.9453 14.7711 79.1685 10.536 76.8719C8.38623 75.7065 7.68765 73.1644 7.5568 70.3315C7.47099 68.473 7.43524 66.3896 7.54536 64.5655C7.60327 63.6091 7.70231 62.6355 7.71553 61.8046Z" fill="#FDFDFD"/>
<path opacity="0.04" d="M8.16235 61.9542C8.40761 54.4335 21.8077 58.0077 21.951 58.0141C21.9589 58.0145 23.0089 58.3539 23.0168 58.3543C23.1701 58.3629 44.6189 65.3122 44.7805 65.3402C45.1037 65.3957 67.2143 72.5738 67.2143 72.5738L67.702 72.7466L67.2265 76.1178C67.2265 76.1178 54.5275 84.8802 47.0422 85.805C47.0422 85.805 34.8702 84.8856 24.9967 82.2119C20.2571 80.9275 15.2261 79.1546 11.0757 76.9039C8.96891 75.7619 8.25388 73.2548 8.12553 70.4786C8.04151 68.6573 7.82164 66.5202 7.92961 64.7326C7.9861 63.7953 8.13518 62.7783 8.16199 61.9546L8.16235 61.9542Z" fill="#FBFBFA"/>
<path opacity="0.06" d="M8.61779 62.1035C8.98246 54.7244 22.0922 58.2171 22.3074 58.2268C22.3192 58.2275 23.3517 58.5602 23.3639 58.5609C23.5941 58.5738 44.6947 65.3937 44.9371 65.4353C45.4222 65.5188 67.2271 72.5879 67.2271 72.5879L67.7051 72.7643L67.0133 76.1563C67.0133 76.1563 54.3473 84.8295 47.015 85.7353C47.015 85.7353 34.9971 84.7861 25.3252 82.1669C20.6825 80.9087 15.6909 79.1397 11.6252 76.9349C9.56128 75.8161 8.8298 73.3442 8.70395 70.6247C8.62172 68.8406 8.21737 66.6501 8.3232 64.8987C8.37861 63.9804 8.57739 62.9201 8.61779 62.1031V62.1035Z" fill="#F9F9F8"/>
<path opacity="0.08" d="M9.06469 62.2532C9.54626 55.0178 22.3682 58.427 22.6549 58.4403C22.671 58.441 23.686 58.7672 23.7021 58.7679C24.0092 58.7851 44.7619 65.4753 45.0851 65.5312C45.7319 65.6423 67.2314 72.6024 67.2314 72.6024L67.6994 72.7824L66.791 76.1956C66.791 76.1956 54.1578 84.7798 46.9782 85.6666C46.9782 85.6666 35.1144 84.6877 25.6438 82.123C21.0976 80.891 16.146 79.1256 12.1651 76.967C10.144 75.8715 9.39575 73.4348 9.27276 70.7718C9.19196 69.0247 8.60385 66.7812 8.70753 65.0663C8.76187 64.1673 9.01034 63.064 9.06433 62.2535L9.06469 62.2532Z" fill="#F7F7F5"/>
<path opacity="0.1" d="M9.52354 62.4022C10.1195 55.312 22.6562 58.6367 23.0148 58.6528C23.0348 58.6539 24.0326 58.9729 24.053 58.9744C24.437 58.9955 44.8414 65.5566 45.2454 65.6262C46.0538 65.7653 67.248 72.6164 67.248 72.6164L67.706 72.8003L66.5813 76.2343C66.5813 76.2343 53.9813 84.7292 46.9544 85.5974C46.9544 85.5974 35.2447 84.5887 25.9757 82.0785C21.5264 80.873 16.6141 79.1112 12.7179 76.9981C10.7402 75.926 9.97508 73.5243 9.8546 70.918C9.77559 69.2082 9.00335 66.9112 9.10489 65.2326C9.15816 64.3526 9.45632 63.207 9.52389 62.4026L9.52354 62.4022Z" fill="#F5F5F3"/>
<path opacity="0.12" d="M9.97899 62.5526C10.6865 55.6094 22.9407 58.8473 23.3712 58.867C23.3951 58.8681 24.3758 59.1806 24.4001 59.1821C24.8606 59.2075 44.9172 65.6393 45.4024 65.7224C46.3723 65.8891 67.2612 72.6313 67.2612 72.6313L67.7092 72.8187L66.3678 76.2735C66.3678 76.2735 53.8008 84.6792 46.9265 85.5284C46.9265 85.5284 35.3708 84.49 26.3032 82.0346C21.9504 80.8553 17.0782 79.0974 13.2663 77.0302C11.3315 75.9814 10.5499 73.6145 10.432 71.0652C10.3547 69.3926 9.39839 67.0419 9.49742 65.4002C9.54926 64.5392 9.89748 63.3513 9.97863 62.5526H9.97899Z" fill="#F4F3F1"/>
<path opacity="0.14" d="M10.4305 62.7028C11.2464 55.9083 23.2214 59.058 23.7233 59.0806C23.7512 59.082 24.7147 59.3878 24.7429 59.3892C25.2803 59.419 44.9891 65.721 45.5547 65.8185C46.6862 66.0131 67.2698 72.6463 67.2698 72.6463L67.7078 72.8373L66.1501 76.3129C66.1501 76.3129 53.6159 84.6294 46.8946 85.4599C46.8946 85.4599 35.4927 84.3917 26.6267 81.9908C22.3708 80.8377 17.5379 79.0834 13.8112 77.0624C11.9192 76.0369 11.1209 73.7052 11.0058 71.2125C10.9303 69.5768 9.78949 67.1731 9.88674 65.5675C9.9375 64.7259 10.3351 63.496 10.4302 62.7028H10.4305Z" fill="#F2F1EE"/>
<path opacity="0.16" d="M10.8729 62.8521C11.7935 56.2078 23.4929 59.2675 24.0667 59.2937C24.0985 59.2951 25.0448 59.5944 25.077 59.5962C25.6912 59.6303 45.0518 65.8028 45.6985 65.914C46.992 66.1362 67.2699 72.6604 67.2699 72.6604L67.6979 72.8551L65.9235 76.3514C65.9235 76.3514 53.4227 84.579 46.8537 85.3902C46.8537 85.3902 35.6059 84.2922 26.9415 81.9458C22.7821 80.8188 17.9893 79.0685 14.3469 77.0934C12.4978 76.0912 11.683 73.7946 11.5704 71.3585C11.4968 69.7602 10.1718 67.303 10.2666 65.734C10.3163 64.9114 10.7628 63.6407 10.8722 62.8521H10.8729Z" fill="#F0EFEC"/>
<path opacity="0.18" d="M11.3243 63.0018C12.3464 56.5092 23.773 59.4779 24.419 59.5073C24.4548 59.5091 25.3839 59.8016 25.42 59.8033C26.1108 59.8417 45.1235 65.8849 45.851 66.01C47.3061 66.2602 67.2787 72.6754 67.2787 72.6754L67.697 72.874L65.7064 76.3915C65.7064 76.3915 53.2384 84.5298 46.8224 85.3224C46.8224 85.3224 35.7287 84.1947 27.2655 81.9027C23.2031 80.8019 18.4496 79.0555 14.8923 77.1263C13.0865 76.1474 12.2549 73.8859 12.1448 71.5065C12.0726 69.9454 10.5638 67.4345 10.6564 65.9021C10.7051 65.0988 11.2009 63.7868 11.3243 63.0025V63.0018Z" fill="#EEECE9"/>
<path opacity="0.2" d="M11.7814 63.1508C12.9011 56.8109 24.0592 59.6871 24.7767 59.7197C24.8164 59.7215 25.7284 60.0072 25.7688 60.0097C26.5364 60.0524 45.2012 65.9658 46.0096 66.1048C47.6263 66.383 67.2936 72.6889 67.2936 72.6889L67.7018 72.8911L65.4945 76.4294C65.4945 76.4294 53.0594 84.4785 46.7965 85.2524C46.7965 85.2524 35.8568 84.0949 27.5954 81.8575C23.6294 80.7828 18.916 79.04 15.443 77.1567C13.6801 76.2011 12.8318 73.9747 12.7245 71.6516C12.6541 70.1278 10.9612 67.5634 11.0513 66.0676C11.0989 65.2833 11.6437 63.9312 11.7814 63.1508Z" fill="#ECEAE7"/>
<path opacity="0.22" d="M12.2328 63.2999C13.4462 57.1141 24.3397 59.8964 25.1291 59.9326C25.1731 59.9348 26.0676 60.2137 26.1119 60.2162C26.9563 60.2631 45.273 66.0471 46.1621 66.1998C47.9404 66.5056 67.3024 72.7029 67.3024 72.7029L67.7006 72.9087L65.277 76.4677C65.277 76.4677 52.8748 84.4279 46.7645 85.1825C46.7645 85.1825 35.979 83.9949 27.9188 81.8123C24.0497 80.7638 19.3756 79.0249 15.9878 77.1875C14.2678 76.2552 13.4029 74.064 13.2982 71.7975C13.2295 70.3106 11.3522 67.6932 11.4405 66.2335C11.4866 65.4682 12.0805 64.076 12.2328 63.2996V63.2999Z" fill="#EAE8E5"/>
<path opacity="0.24" d="M12.6852 63.4499C13.988 57.4193 24.6212 60.1069 25.4825 60.146C25.5304 60.1482 26.4074 60.4206 26.456 60.4231C27.3773 60.4744 45.3457 66.1286 46.316 66.2956C48.2559 66.6294 67.3125 72.7173 67.3125 72.7173L67.7008 72.927L65.0609 76.5069C65.0609 76.5069 52.6919 84.3778 46.7343 85.1137C46.7343 85.1137 36.1025 83.8964 28.2439 81.7683C24.4718 80.746 19.8373 79.0111 16.5339 77.2195C14.8571 76.3105 13.9755 74.1544 13.8732 71.9445C13.8064 70.4949 11.7449 67.8237 11.8307 66.401C11.8758 65.6551 12.5182 64.2231 12.6852 63.4495V63.4499Z" fill="#E8E6E2"/>
<path opacity="0.25" d="M13.1381 63.5996C14.5259 57.7253 24.9032 60.3169 25.8359 60.3595C25.8878 60.362 26.7476 60.6277 26.8002 60.6305C27.798 60.6857 45.4189 66.2109 46.4696 66.3916C48.5711 66.7529 67.3224 72.7323 67.3224 72.7323L67.7007 72.9456L64.8441 76.5462C64.8441 76.5462 52.5081 84.3279 46.7031 85.0452C46.7031 85.0452 36.2254 83.7981 28.5684 81.7248C24.8928 80.729 20.298 78.9973 17.0797 77.252C15.4458 76.3663 14.5474 74.2453 14.448 72.0921C14.3829 70.6798 12.1374 67.9552 12.221 66.5687C12.265 65.8417 12.9557 64.3706 13.1377 63.6L13.1381 63.5996Z" fill="#E6E4E0"/>
<path opacity="0.27" d="M13.5906 63.7491C15.0593 58.0317 25.1849 60.5269 26.1895 60.5724C26.2453 60.5749 27.0879 60.8338 27.1444 60.837C28.2191 60.8965 45.4918 66.2923 46.6233 66.4866C48.8867 66.8758 67.3324 72.7459 67.3324 72.7459L67.7006 72.9627L64.6278 76.5846C64.6278 76.5846 52.3246 84.277 46.6726 84.9752C46.6726 84.9752 36.349 83.6984 28.8934 81.6796C25.3146 80.71 20.7595 78.9823 17.6256 77.2828C16.0346 76.4204 15.1197 74.3345 15.0228 72.238C14.9592 70.8626 12.5295 68.0849 12.6114 66.735C12.6543 66.027 13.3929 64.5172 13.5903 63.7491H13.5906Z" fill="#E4E2DE"/>
<path opacity="0.29" d="M14.0471 63.8986C15.5916 58.3386 25.4705 60.7367 26.5466 60.7858C26.6063 60.7886 27.4318 61.0406 27.4926 61.0439C28.6441 61.1077 45.5686 66.3737 46.7813 66.5823C49.2063 66.9992 67.347 72.7606 67.347 72.7606L67.7052 72.9811L64.4157 76.6237C64.4157 76.6237 52.1458 84.2272 46.6461 84.9065C46.6461 84.9065 36.4766 83.5999 29.2226 81.6356C25.7404 80.6921 21.225 78.9683 18.1757 77.3144C16.6277 76.4753 15.6963 74.4246 15.602 72.3846C15.5401 71.0465 12.9263 68.2151 13.0057 66.9017C13.0471 66.2131 13.834 64.6642 14.0468 63.8982L14.0471 63.8986Z" fill="#E2E0DB"/>
<path opacity="0.31" d="M14.4893 64.0495C15.1417 58.4479 25.7417 60.9481 26.8897 61.0001C26.9533 61.003 27.7617 61.2485 27.8264 61.2521C29.0548 61.3202 45.6314 66.4568 46.9245 66.6791C49.5112 67.1239 67.3465 72.776 67.3465 72.776L67.6951 73.0004L64.1893 76.6638C64.1893 76.6638 51.9523 84.1781 46.6056 84.8387C46.6056 84.8387 36.5902 83.5024 29.5375 81.5925C26.1522 80.6753 21.6764 78.955 18.7119 77.3474C17.2071 76.5315 16.2586 74.5159 16.1671 72.5326C16.107 71.2318 13.3091 68.347 13.3863 67.0701C13.4267 66.4006 14.1318 64.7621 14.4896 64.0495H14.4893Z" fill="#E1DED9"/>
<path opacity="0.33" d="M14.9423 64.198C15.6355 58.7338 26.0238 61.1569 27.2437 61.2125C27.3112 61.2157 28.1024 61.4544 28.1711 61.458C29.476 61.5304 45.7047 66.5373 47.079 66.7739C49.8272 67.2463 67.3573 72.7894 67.3573 72.7894L67.6959 73.0174L63.9734 76.7016C63.9734 76.7016 51.7693 84.1266 46.5756 84.7683C46.5756 84.7683 36.7139 83.4022 29.8628 81.5468C26.574 80.6557 22.1384 78.9394 19.2582 77.3776C17.7963 76.5851 16.8314 74.6047 16.7424 72.678C16.6841 71.4141 13.7021 68.4762 13.7768 67.2356C13.8161 66.585 14.5619 64.9024 14.9423 64.1977V64.198Z" fill="#DFDCD6"/>
<path opacity="0.35" d="M15.395 64.348C16.1289 59.0211 26.3056 61.3671 27.597 61.4259C27.6688 61.4291 28.4425 61.6611 28.5151 61.6654C29.8969 61.7421 45.7774 66.6195 47.2325 66.8697C50.1423 67.3701 67.367 72.8043 67.367 72.8043L67.6956 73.0359L63.7568 76.7412C63.7568 76.7412 51.5859 84.077 46.5446 84.6999C46.5446 84.6999 36.837 83.3041 30.1875 81.5033C26.9956 80.6383 22.5993 78.926 19.8042 77.4101C18.3852 76.6408 17.4038 74.6955 17.3173 72.8255C17.2608 71.5988 14.0943 68.6075 14.1673 67.4035C14.2055 66.7722 14.9924 65.0449 15.395 64.348Z" fill="#DDDAD4"/>
<path opacity="0.37" d="M15.8431 64.4982C16.6179 59.3089 26.5829 61.5779 27.9461 61.6399C28.0219 61.6435 28.7784 61.8686 28.8549 61.8729C30.3136 61.9539 45.8462 66.702 47.3821 66.9658C50.4539 67.4942 67.3729 72.819 67.3729 72.819L67.6915 73.0545L63.5361 76.7806C63.5361 76.7806 51.3981 84.0275 46.5098 84.6311C46.5098 84.6311 36.9562 83.2056 30.5081 81.4592C27.4127 80.6204 23.0564 78.9116 20.3457 77.442C18.9696 76.696 17.9718 74.7855 17.8878 72.9724C17.8327 71.7831 14.4824 68.738 14.5529 67.5705C14.5897 66.9583 15.4177 65.1868 15.8428 64.4979L15.8431 64.4982Z" fill="#DBD8D2"/>
<path opacity="0.39" d="M16.2945 64.6471C17.11 59.595 26.8634 61.787 28.2985 61.8522C28.3782 61.8558 29.1175 62.0744 29.198 62.0787C30.7331 62.1641 45.9179 66.7824 47.5346 67.0605C50.768 67.6165 67.3817 72.8327 67.3817 72.8327L67.6903 73.0718L63.3186 76.8187C63.3186 76.8187 51.2134 83.9763 46.4778 84.5613C46.4778 84.5613 37.0783 83.106 30.8318 81.4141C27.8333 80.6015 23.5163 78.8967 20.8907 77.4729C19.5579 76.7502 18.5429 74.8748 18.4618 73.1184C18.4085 71.966 14.8741 68.8679 14.9424 67.7369C14.9781 67.144 15.8469 65.3281 16.2945 64.6471Z" fill="#D9D6CF"/>
<path opacity="0.41" d="M16.7472 64.7974C17.6035 59.8827 27.1452 61.9979 28.6518 62.0664C28.7355 62.0703 29.4576 62.2822 29.5424 62.2868C31.1544 62.3765 45.9913 66.8654 47.6888 67.1572C51.0838 67.7411 67.3922 72.848 67.3922 72.848L67.6907 73.0906L63.1024 76.8583C63.1024 76.8583 51.0301 83.9267 46.4475 84.493C46.4475 84.493 37.2021 83.008 31.1569 81.3709C28.2553 80.5845 23.978 78.8836 21.4368 77.5053C20.1469 76.806 19.1154 74.9657 19.0368 73.2659C18.9853 72.1508 15.2668 68.9992 15.3329 67.9045C15.3676 67.3306 16.2775 65.4706 16.7472 64.7971V64.7974Z" fill="#D7D4CD"/>
<path opacity="0.43" d="M17.2094 64.9462C18.1064 60.1687 27.4365 62.2069 29.0149 62.2789C29.1025 62.2829 29.8072 62.4879 29.8962 62.4929C31.5851 62.5865 46.0738 66.9464 47.8521 67.2521C51.4086 67.8636 67.4118 72.8619 67.4118 72.8619L67.7006 73.1082L62.896 76.8967C62.896 76.8967 50.857 83.8761 46.4266 84.4231C46.4266 84.4231 37.335 82.9079 31.4918 81.3257C28.6867 80.5658 24.4491 78.8682 21.9929 77.5362C20.7459 76.8601 19.698 75.0549 19.6219 73.4118C19.5722 72.3339 15.6692 69.1286 15.7332 68.0708C15.7668 67.5159 16.7174 65.6115 17.2097 64.9462H17.2094Z" fill="#D5D2CA"/>
<path opacity="0.45" d="M17.6566 65.0968C18.5944 60.4566 27.7128 62.4181 29.3631 62.493C29.4546 62.4973 30.1422 62.6955 30.2351 62.7009C32.0009 62.7988 46.1413 67.0289 48.0004 67.3486C51.7186 67.9881 67.4164 72.8771 67.4164 72.8771L67.6952 73.1273L62.6739 76.9369C62.6739 76.9369 50.6678 83.8271 46.3905 84.3555C46.3905 84.3555 37.453 82.8105 31.811 81.2828C29.1029 80.549 24.9049 78.8554 22.5331 77.5692C21.329 76.9165 20.2643 75.1464 20.1911 73.5599C20.1432 72.5193 16.056 69.2606 16.1179 68.239C16.1504 67.7035 17.1422 65.7546 17.6566 65.0972V65.0968Z" fill="#D3D0C8"/>
<path opacity="0.47" d="M18.1094 65.2456C19.0879 60.7428 27.9947 62.6271 29.7165 62.7056C29.8119 62.7099 30.4823 62.9017 30.5792 62.9071C32.4215 63.0093 46.2144 67.11 48.1543 67.4433C52.0344 68.1104 67.4265 72.8907 67.4265 72.8907L67.6954 73.1445L62.4578 76.975C62.4578 76.975 50.4846 83.7759 46.3603 84.2856C46.3603 84.2856 37.5768 82.7109 32.1362 81.2377C29.5245 80.5301 25.3662 78.8404 23.0796 77.6001C21.9187 76.9707 20.8372 75.2358 20.7664 73.7059C20.72 72.7022 16.4491 69.3904 16.5084 68.4051C16.5395 67.8885 17.5724 65.8955 18.1094 65.2456Z" fill="#D1CEC6"/>
<path opacity="0.49" d="M18.5527 65.3952C19.5724 61.0299 28.2672 62.8369 30.0608 62.9186C30.1606 62.9233 30.8134 63.1083 30.9142 63.1136C32.8334 63.2201 46.2781 67.191 48.2988 67.5387C52.3405 68.2338 67.4273 72.9048 67.4273 72.9048L67.6861 73.1622L62.2319 77.0134C62.2319 77.0134 50.2919 83.7251 46.3199 84.2158C46.3199 84.2158 37.6906 82.6114 32.4515 81.1926C29.9368 80.5112 25.8182 78.825 23.6159 77.631C22.4979 77.0249 21.4 75.3251 21.3317 73.8518C21.287 72.8854 16.8317 69.5199 16.8892 68.5714C16.9193 68.0739 17.9932 66.0365 18.5524 65.3948L18.5527 65.3952Z" fill="#CFCCC3"/>
<path opacity="0.51" d="M19.0055 65.544C20.0659 61.316 28.549 63.0463 30.4142 63.1312C30.5179 63.1359 31.1535 63.3144 31.2586 63.3201C33.2547 63.4309 46.3512 67.2724 48.453 67.6338C52.6563 68.3564 67.4378 72.9188 67.4378 72.9188L67.6866 73.1801L62.0161 77.0521C62.0161 77.0521 50.109 83.6749 46.29 84.1466C46.29 84.1466 37.8148 82.5124 32.777 81.1482C30.3588 80.4929 26.2799 78.8107 24.1623 77.6622C23.0873 77.0794 21.9725 75.4147 21.9071 73.9981C21.8642 73.069 17.2247 69.6501 17.2798 68.7378C17.3087 68.2596 18.4235 66.1777 19.0052 65.544H19.0055Z" fill="#CEC9C1"/>
<path opacity="0.53" d="M19.4583 65.695C20.5594 61.6043 28.8309 63.2575 30.7679 63.3457C30.8756 63.3507 31.4941 63.522 31.6031 63.5281C33.6756 63.6432 46.4246 67.3553 48.6069 67.7306C52.9718 68.4812 67.448 72.9343 67.448 72.9343L67.6868 73.1992L61.7996 77.092C61.7996 77.092 49.9254 83.6255 46.2591 84.0783C46.2591 84.0783 37.9376 82.4143 33.1018 81.1045C30.7805 80.4754 26.7412 78.7972 24.7084 77.6946C23.6766 77.135 22.5451 75.5055 22.4822 74.1455C22.441 73.2533 17.6174 69.7813 17.6704 68.9056C17.6982 68.4464 18.8537 66.3205 19.4579 65.6942L19.4583 65.695Z" fill="#CCC7BE"/>
<path opacity="0.55" d="M19.9146 65.8439C21.0565 61.8905 29.1164 63.467 31.1252 63.5584C31.2368 63.5634 31.8381 63.7283 31.9511 63.7347C34.1005 63.8541 46.5013 67.4365 48.7647 67.8258C53.2912 68.6043 67.4621 72.9484 67.4621 72.9484L67.6909 73.2169L61.5874 77.1309C61.5874 77.1309 49.7461 83.5751 46.2328 84.0092C46.2328 84.0092 38.0653 82.3155 33.4309 81.0606C31.206 80.4577 27.2065 78.783 25.2584 77.7266C24.2695 77.1904 23.1215 75.596 23.0611 74.2926C23.0218 73.4377 18.0141 69.912 18.0648 69.0728C18.0913 68.633 19.2883 66.4622 19.9146 65.8442V65.8439Z" fill="#CAC5BC"/>
<path opacity="0.57" d="M20.3681 65.9938C21.5508 62.1777 29.399 63.6771 31.4794 63.7717C31.5948 63.7771 32.179 63.9352 32.2959 63.9416C34.5222 64.0653 46.5747 67.5183 48.919 67.9212C53.6074 68.7273 67.4726 72.9625 67.4726 72.9625L67.6918 73.2345L61.3716 77.1693C61.3716 77.1693 49.5636 83.5247 46.2026 83.9398C46.2026 83.9398 38.1892 82.2163 33.756 81.0159C31.6281 80.4391 27.6682 78.7683 25.8049 77.7579C24.8589 77.2449 23.6941 75.6856 23.6365 74.4389C23.5986 73.6213 18.4068 70.0422 18.4554 69.2396C18.4808 68.8188 19.7185 66.6039 20.3674 65.9938H20.3681Z" fill="#C8C3BA"/>
<path opacity="0.59" d="M20.8202 66.1441C22.0436 62.4652 29.6802 63.888 31.8324 63.9858C31.9518 63.9912 32.5188 64.1428 32.6397 64.1493C34.9428 64.2772 46.6475 67.6005 49.0725 68.0177C53.9226 68.8518 67.4824 72.978 67.4824 72.978L67.6916 73.254L61.1551 77.2095C61.1551 77.2095 49.38 83.4756 46.172 83.8717C46.172 83.8717 38.3127 82.1185 34.0812 80.9726C32.0498 80.4223 28.1296 78.7552 26.351 77.7906C25.4479 77.3009 24.2667 75.7768 24.2116 74.5867C24.1755 73.806 18.7995 70.1738 18.846 69.4074C18.8703 69.0056 20.1491 66.7466 20.8202 66.1441Z" fill="#C6C1B7"/>
<path opacity="0.61" d="M21.2726 66.2928C22.5368 62.7516 29.9613 64.0969 32.1858 64.198C32.3092 64.2037 32.8587 64.3482 32.9841 64.3554C35.3638 64.4873 46.7206 67.6815 49.2264 68.1123C54.2381 68.974 67.4926 72.9912 67.4926 72.9912L67.6918 73.2708L60.939 77.2471C60.939 77.2471 49.1968 83.424 46.1418 83.8015C46.1418 83.8015 38.4366 82.0185 34.4063 80.927C32.4718 80.403 28.5913 78.7394 26.8974 77.8207C26.0376 77.3543 24.8396 75.8653 24.787 74.7319C24.7527 73.9884 19.1926 70.3025 19.2366 69.573C19.2598 69.1905 20.5794 66.8868 21.273 66.2925L21.2726 66.2928Z" fill="#C4BFB5"/>
<path opacity="0.63" d="M21.7199 66.4422C23.0249 63.0383 30.2378 64.3065 32.5337 64.4112C32.661 64.4169 33.1933 64.5549 33.3228 64.5621C35.7792 64.6983 46.7879 67.7631 49.3745 68.2079C54.5478 69.0976 67.4973 73.0055 67.4973 73.0055L67.6865 73.2887L60.717 77.2861C60.717 77.2861 49.008 83.3738 46.1054 83.7326C46.1054 83.7326 38.5539 81.9195 34.7256 80.8829C32.888 80.385 29.0472 78.7253 27.4377 77.8525C26.6208 77.4098 25.4059 75.9552 25.3562 74.8788C25.3237 74.1726 19.5795 70.4332 19.6213 69.74C19.6431 69.3765 21.0038 67.0286 21.7199 66.4422Z" fill="#C2BDB2"/>
<path opacity="0.65" d="M22.1724 66.5911C23.5181 63.3245 30.5193 64.516 32.8871 64.6239C33.0187 64.63 33.5335 64.7612 33.6669 64.7687C36.2002 64.9092 46.861 67.8442 49.5284 68.3031C54.8633 69.2203 67.5075 73.0196 67.5075 73.0196L67.6866 73.3067L60.5009 77.325C60.5009 77.325 48.8248 83.3237 46.0752 83.6631C46.0752 83.6631 38.6778 81.8203 35.0508 80.8382C33.3097 80.3664 29.5086 78.7107 27.9842 77.8838C27.2101 77.4644 25.9789 76.0449 25.9317 75.0251C25.9009 74.3563 19.9722 70.5635 20.0119 69.9068C20.0327 69.5623 21.4345 67.1703 22.1727 66.5914L22.1724 66.5911Z" fill="#C0BBB0"/>
<path opacity="0.67" d="M22.6158 66.7415C24.0022 63.6122 30.7918 64.7266 33.2315 64.8378C33.367 64.8439 33.8647 64.9686 34.0019 64.9761C36.6118 65.1209 46.9247 67.9266 49.6729 68.399C55.1697 69.3442 67.5083 73.0342 67.5083 73.0342L67.6774 73.3249L60.2751 77.3639C60.2751 77.3639 48.6318 83.2734 46.0349 83.5942C46.0349 83.5942 38.7916 81.7216 35.3662 80.794C33.722 80.3484 29.9606 78.6963 28.5205 77.9156C27.7894 77.5195 26.5417 76.1351 26.497 75.172C26.4677 74.54 20.3552 70.6942 20.3928 70.0737C20.4124 69.7486 21.855 67.3118 22.6158 66.7412V66.7415Z" fill="#BEB9AE"/>
<path opacity="0.69" d="M23.0686 66.8912C24.4958 63.8991 31.0737 64.9369 33.5849 65.0512C33.7243 65.0577 34.2048 65.1752 34.3461 65.1831C37.0328 65.3322 46.9975 68.0085 49.8269 68.4949C55.4853 69.4677 67.5185 73.049 67.5185 73.049L67.678 73.3433L60.0593 77.4032C60.0593 77.4032 48.449 83.2234 46.005 83.5255C46.005 83.5255 38.9158 81.6232 35.6918 80.7504C34.1441 80.331 30.4223 78.6828 29.067 77.948C28.3791 77.5752 27.1142 76.226 27.0724 75.3195C27.0449 74.7248 20.7483 70.8252 20.7833 70.2416C20.8019 69.9355 22.2856 67.4546 23.0686 66.8919V66.8912Z" fill="#BCB7AB"/>
<path opacity="0.71" d="M23.5266 67.0407C24.9946 64.186 31.3609 65.1466 33.9439 65.2642C34.0873 65.2706 34.5506 65.3818 34.6958 65.39C37.4594 65.5434 47.0762 68.0899 49.986 68.5903C55.806 69.5911 67.534 73.0631 67.534 73.0631L67.6834 73.3609L59.8481 77.4416C59.8481 77.4416 48.271 83.1725 45.9794 83.4557C45.9794 83.4557 39.0443 81.5236 36.0215 80.7053C34.5707 80.3121 30.8886 78.6678 29.618 77.9785C28.973 77.629 27.6917 76.315 27.6524 75.4651C27.6266 74.9077 21.1459 70.9546 21.1788 70.4073C21.196 70.1202 22.7208 67.5952 23.5263 67.04L23.5266 67.0407Z" fill="#BBB5A9"/>
<path opacity="0.73" d="M23.9774 67.1913C25.4861 64.4742 31.6408 65.3578 34.2957 65.4786C34.443 65.4854 34.8891 65.5897 35.0386 65.598C37.8791 65.7557 47.1476 68.1728 50.1386 68.6871C56.1202 69.7159 67.5429 73.0789 67.5429 73.0789L67.6823 73.3807L59.6307 77.4825C59.6307 77.4825 48.0865 83.1246 45.9478 83.3887C45.9478 83.3887 39.1665 81.4269 36.3457 80.6631C34.9914 80.296 31.349 78.6554 30.1631 78.0123C29.5611 77.6861 28.2633 76.4071 28.2265 75.6139C28.2025 75.0934 21.5374 71.0873 21.5685 70.5765C21.5846 70.3088 23.1501 67.739 23.9781 67.192L23.9774 67.1913Z" fill="#B9B3A6"/>
<path opacity="0.75" d="M24.4309 67.3405C25.9804 64.7607 31.9234 65.5673 34.6498 65.6913C34.801 65.6981 35.2301 65.796 35.3834 65.8042C38.3004 65.9662 47.2215 68.2535 50.2929 68.7819C56.4361 69.8382 67.5534 73.0923 67.5534 73.0923L67.6828 73.3977L59.4146 77.5202C59.4146 77.5202 47.9033 83.0731 45.9176 83.3182C45.9176 83.3182 39.2904 81.3267 36.6708 80.6173C35.4135 80.2764 31.8108 78.6397 30.7096 78.0425C30.1508 77.7396 28.8359 76.4958 28.8019 75.7592C28.7798 75.276 21.9305 71.2161 21.9591 70.7419C21.9741 70.4931 23.5808 67.8793 24.4309 67.3402V67.3405Z" fill="#B7B1A4"/>
<path opacity="0.76" d="M24.8834 67.4894C26.4736 65.0469 32.205 65.7764 35.0032 65.904C35.1584 65.9112 35.5703 66.0019 35.7276 66.0108C38.7214 66.1768 47.2943 68.335 50.4468 68.877C56.7516 69.9613 67.5636 73.1064 67.5636 73.1064L67.683 73.4154L59.1985 77.5588C59.1985 77.5588 47.7204 83.0223 45.8871 83.2489C45.8871 83.2489 39.4139 81.2275 36.996 80.5726C35.8352 80.2583 32.2722 78.6252 31.2558 78.0739C30.7399 77.7943 29.4085 76.5856 29.377 75.9056C29.3563 75.4597 22.3232 71.3464 22.3497 70.9087C22.3636 70.6793 24.0111 68.021 24.8838 67.4894H24.8834Z" fill="#B5AFA2"/>
<path opacity="0.78" d="M25.3369 67.6386C26.9679 65.3334 32.4876 65.9861 35.3574 66.1166C35.5168 66.1238 35.9112 66.208 36.0724 66.217C39.1431 66.3872 47.3678 68.4161 50.6011 68.972C57.0679 70.084 67.5742 73.1201 67.5742 73.1201L67.6836 73.433L58.9824 77.5971C58.9824 77.5971 47.5372 82.9718 45.8569 83.1793C45.8569 83.1793 39.5378 81.1283 37.3212 80.5279C36.2573 80.2397 32.7339 78.6101 31.8022 78.1051C31.3293 77.8488 29.9814 76.6752 29.9525 76.0519C29.9335 75.6429 22.716 71.4766 22.7403 71.0751C22.7532 70.8647 24.4417 68.1619 25.3366 67.6386H25.3369Z" fill="#B3AD9F"/>
<path opacity="0.8" d="M25.7839 67.7882C27.456 65.6202 32.7637 66.1959 35.7053 66.33C35.8687 66.3375 36.2455 66.4149 36.4111 66.4242C39.5586 66.5988 47.4354 68.4979 50.7496 69.0678C57.3779 70.2077 67.5789 73.1349 67.5789 73.1349L67.6783 73.4514L58.7608 77.6363C58.7608 77.6363 47.3485 82.9217 45.8209 83.1103C45.8209 83.1103 39.6559 81.0294 37.6405 80.4835C36.6731 80.2215 33.1895 78.5959 32.3425 78.1367C31.9124 77.9037 30.5478 76.7653 30.5217 76.1986C30.5045 75.8268 23.1029 71.6068 23.125 71.2422C23.1365 71.0508 24.8662 68.304 25.7835 67.7885L25.7839 67.7882Z" fill="#B1AB9D"/>
<path opacity="0.82" d="M26.236 67.9381C27.9489 65.9074 33.0449 66.4064 36.0584 66.5433C36.2257 66.5509 36.5854 66.6218 36.7552 66.6312C39.9793 66.81 47.5082 68.5797 50.9032 69.1636C57.6931 70.3311 67.5888 73.1493 67.5888 73.1493L67.6785 73.4694L58.5443 77.6755C58.5443 77.6755 47.165 82.8716 45.7903 83.0415C45.7903 83.0415 39.7791 80.9309 37.9657 80.4395C37.0952 80.2036 33.6512 78.582 32.889 78.1683C32.5022 77.9586 31.1207 76.8553 31.0971 76.3452C31.0818 76.0108 23.496 71.7373 23.5157 71.409C23.526 71.2369 25.2968 68.4456 26.2364 67.9377L26.236 67.9381Z" fill="#AFA99B"/>
<path opacity="0.84" d="M26.6798 68.088C28.7308 66.5241 33.3178 66.6166 36.4028 66.7571C36.574 66.765 36.9165 66.8291 37.0903 66.8385C40.3912 67.0216 47.5719 68.6616 51.0477 69.2595C57.9992 70.4549 67.5896 73.1641 67.5896 73.1641L67.6693 73.4878L58.3188 77.7147C58.3188 77.7147 46.9727 82.8215 45.7504 82.9728C45.7504 82.9728 39.8932 80.8321 38.2812 80.3959C37.5075 80.1862 34.1029 78.5681 33.4254 78.2007C33.0815 78.0143 31.6836 76.9461 31.6625 76.4927C31.6489 76.1952 23.879 71.8686 23.8965 71.5769C23.9058 71.4238 25.8171 68.7461 26.6794 68.0884L26.6798 68.088Z" fill="#ADA698"/>
<path opacity="0.86" d="M27.1416 68.238C29.1852 66.7819 33.6088 66.8271 36.7656 66.9705C36.9408 66.9784 37.2661 67.0357 37.4438 67.0457C40.8216 67.2332 47.6545 68.7437 51.211 69.3553C58.3242 70.5783 67.6092 73.1785 67.6092 73.1785L67.6789 73.5062L58.1118 77.7538C58.1118 77.7538 46.7986 82.7718 45.7293 82.9037C45.7293 82.9037 40.0262 80.7333 38.6158 80.3515C37.9386 80.168 34.574 78.5539 33.9813 78.2324C33.6803 78.0693 32.2656 77.0362 32.2473 76.6394C32.2352 76.3792 24.2812 71.9989 24.2969 71.7436C24.3051 71.6096 26.2454 68.8767 27.142 68.238H27.1416Z" fill="#ABA496"/>
<path opacity="0.88" d="M27.5899 68.387C29.6285 67.0352 33.8862 67.0363 37.1149 67.1833C37.294 67.1915 37.6022 67.2421 37.7838 67.2521C41.2381 67.4439 47.7231 68.825 51.3605 69.4505C58.6356 70.7015 67.6149 73.1927 67.6149 73.1927L67.6746 73.524L57.8912 77.7924C57.8912 77.7924 46.6109 82.7212 45.6946 82.8344C45.6946 82.8344 40.1455 80.6342 38.9364 80.307C38.3562 80.1496 35.0309 78.5394 34.5229 78.2638C34.2648 78.124 32.8336 77.1257 32.8179 76.7859C32.8075 76.5629 24.6694 72.1292 24.6826 71.9102C24.6894 71.7955 26.6586 69.0046 27.5899 68.387Z" fill="#A9A293"/>
<path opacity="0.9" d="M28.0422 68.5371C30.0779 67.2864 34.1675 67.247 37.4677 67.3972C37.6508 67.4054 37.9418 67.4495 38.1273 67.4599C41.6585 67.656 47.7953 68.9074 51.5138 69.5468C58.9505 70.8258 67.6245 73.2077 67.6245 73.2077L67.6742 73.5425L57.6741 77.8321C57.6741 77.8321 46.4271 82.6716 45.663 82.7659C45.663 82.7659 40.2681 80.5359 39.2606 80.2632C38.7769 80.132 35.4917 78.5254 35.0681 78.296C34.8532 78.1795 33.4053 77.2163 33.392 76.9331C33.3834 76.7474 25.0612 72.2603 25.0723 72.0779C25.078 71.9822 27.0754 69.131 28.0418 68.5374L28.0422 68.5371Z" fill="#A8A091"/>
<path opacity="0.92" d="M28.4946 68.6862C30.531 67.533 34.4491 67.4563 37.8211 67.6097C38.0085 67.6183 38.282 67.6556 38.4718 67.666C42.0799 67.8664 47.8688 68.9883 51.6677 69.6414C59.266 70.948 67.6347 73.2209 67.6347 73.2209L67.6744 73.5597L57.4581 77.8701C57.4581 77.8701 46.2439 82.6203 45.6329 82.696C45.6329 82.696 40.3917 80.4363 39.5858 80.218C39.199 80.1133 35.9535 78.5103 35.6146 78.3264C35.4426 78.2332 33.9782 77.3052 33.9675 77.0786C33.9607 76.9299 25.4543 72.3897 25.4629 72.2434C25.4675 72.1671 27.4929 69.2529 28.4946 68.6858V68.6862Z" fill="#A69E8F"/>
<path opacity="0.94" d="M28.9475 68.8357C30.9878 67.7768 34.731 67.6661 38.1749 67.8231C38.3662 67.8317 38.6226 67.8621 38.8163 67.8729C42.5012 68.0772 47.9419 69.0701 51.822 69.7372C59.5819 71.0717 67.6453 73.2357 67.6453 73.2357L67.6754 73.578L57.2423 77.9092C57.2423 77.9092 46.061 82.5706 45.6027 82.6272C45.6027 82.6272 40.5156 80.3378 39.911 80.1739C39.6207 80.0954 36.4149 78.4964 36.1607 78.3584C36.0316 78.2885 34.5504 77.3956 34.5426 77.2257C34.5376 77.1142 25.8467 72.5202 25.8535 72.4109C25.8571 72.3536 27.9103 69.3741 28.9475 68.8357Z" fill="#A49C8C"/>
<path opacity="0.96" d="M29.4003 68.9858C31.4489 68.0176 35.0129 67.8767 38.5284 68.0366C38.7236 68.0456 38.9628 68.0692 39.1605 68.0803C42.9219 68.2889 48.0147 69.1521 51.9756 69.8332C59.8971 71.1953 67.6552 73.2503 67.6552 73.2503L67.6752 73.5962L57.0259 77.9482C57.0259 77.9482 45.8775 82.5203 45.5722 82.5579C45.5722 82.5579 40.6392 80.2387 40.2362 80.1294C40.0428 80.077 36.8767 78.4816 36.7072 78.3898C36.621 78.3432 35.1234 77.4854 35.118 77.3722C35.1145 77.298 26.2399 72.6506 26.2441 72.5775C26.2463 72.5391 28.3277 69.4919 29.4003 68.9851V68.9858Z" fill="#A29A8A"/>
<path opacity="0.98" d="M29.8469 69.135C31.9083 68.2546 35.2887 68.0862 38.876 68.2496C39.0751 68.2586 39.2968 68.2758 39.4988 68.2869C43.337 68.4998 48.082 69.2336 52.1237 69.9286C60.2071 71.3187 67.6599 73.2647 67.6599 73.2647L67.6699 73.6142L56.8043 77.987C56.8043 77.987 45.6891 82.4698 45.5361 82.4888C45.5361 82.4888 40.7572 80.1399 40.5556 80.0854C40.4587 80.0592 37.3322 78.4677 37.2475 78.4218C37.2046 78.3985 35.6901 77.5759 35.6873 77.5192C35.6855 77.4819 26.6268 72.7815 26.6289 72.745C26.63 72.726 28.74 69.6078 29.8473 69.1353L29.8469 69.135Z" fill="#A09887"/>
<path d="M67.6705 73.6321L56.5882 78.026L45.506 82.4199L36.2627 77.6658L27.0195 72.9116C27.0195 72.9116 29.1589 69.7214 30.3001 69.2844C32.4952 68.446 35.9285 68.2764 39.8436 68.4936C43.7588 68.7109 48.1555 69.3149 52.278 70.0239C60.5231 71.4416 67.6705 73.2786 67.6705 73.2786V73.6321Z" fill="#9E9685"/>
</g>
<path d="M27.0219 72.9128L25.7773 48.6613L44.9874 56.1397L45.5079 82.4208L27.0219 72.9128Z" fill="url(#paint0_linear_8009_7246)"/>
<path d="M27.0238 72.9119L25.7793 48.6604L44.9893 56.1388L45.5099 82.4199L27.0238 72.9119Z" fill="url(#paint1_linear_8009_7246)" style="mix-blend-mode:multiply"/>
<mask id="mask0_8009_7246" style="mask-type:luminance" maskUnits="userSpaceOnUse" x="25" y="48" width="21" height="35">
<path d="M27.0277 72.9102L25.7832 48.6587L44.9932 56.1371L45.5138 82.4182L27.0277 72.9102Z" fill="white"/>
</mask>
<g mask="url(#mask0_8009_7246)">
<path d="M47.7496 48.3633C52.5825 51.623 53.1656 59.2359 49.0524 65.3694C44.9373 71.5029 37.6837 73.8332 32.8494 70.5734C28.0143 67.3118 27.4319 59.6972 31.5466 53.5637C35.6612 47.4331 42.9131 45.1024 47.7496 48.3633Z" fill="url(#paint2_radial_8009_7246)" style="mix-blend-mode:multiply"/>
<path d="M41.6202 73.2038C36.4112 75.8198 29.5122 72.5841 26.2102 65.9756C22.9078 59.3672 24.4523 51.8902 29.6602 49.2742C34.8688 46.6564 41.7678 49.8922 45.0702 56.4988C48.3729 63.1073 46.8288 70.586 41.6202 73.2038Z" fill="url(#paint3_radial_8009_7246)" style="mix-blend-mode:multiply"/>
<path d="M37.7259 67.8256C34.9004 65.9878 35.8596 59.4715 39.8706 53.2685C43.8834 47.0679 49.4245 43.5296 52.2496 45.3667C55.0758 47.2056 54.1165 53.7208 50.1059 59.9239C46.095 66.1251 40.552 69.6616 37.7259 67.8256Z" fill="url(#paint4_radial_8009_7246)" style="mix-blend-mode:multiply"/>
<path d="M36.0033 69.8698C30.796 72.4858 23.8956 69.2518 20.5933 62.6434C17.2909 56.0367 18.8343 48.5569 24.0433 45.942C29.2519 43.3235 36.1509 46.5599 39.4547 53.1666C42.7571 59.775 41.2119 67.2538 36.0033 69.8698Z" fill="url(#paint5_radial_8009_7246)" style="mix-blend-mode:multiply"/>
<path d="M33.2 71.4143C27.991 74.0321 21.0906 70.7964 17.7882 64.1897C14.4858 57.5812 16.0307 50.1025 21.2382 47.4847C26.4472 44.868 33.3477 48.1034 36.65 54.7111C39.952 61.3196 38.4072 68.7983 33.2 71.4143Z" fill="url(#paint6_radial_8009_7246)" style="mix-blend-mode:multiply"/>
</g>
<path d="M45.5069 82.4206L44.9863 56.1395L68.1315 49.0612L67.6714 73.6331L45.5069 82.4206Z" fill="url(#paint7_linear_8009_7246)"/>
<path d="M45.5039 82.4198L44.9834 56.1387L68.1286 49.0603L67.6685 73.6323L45.5039 82.4198Z" fill="url(#paint8_linear_8009_7246)" style="mix-blend-mode:multiply"/>
<mask id="mask1_8009_7246" style="mask-type:luminance" maskUnits="userSpaceOnUse" x="44" y="49" width="25" height="34">
<path d="M45.4991 82.4184L44.9785 56.1373L68.1237 49.059L67.6636 73.6309L45.4991 82.4184Z" fill="white"/>
</mask>
<g mask="url(#mask1_8009_7246)">
<path d="M65.4489 56.138C65.4489 63.5297 59.473 69.5223 52.1025 69.5223C44.7319 69.5223 38.7539 63.53 38.7539 56.138C38.7539 48.746 44.7305 42.7555 52.1025 42.7555C59.4744 42.7555 65.4489 48.747 65.4489 56.138Z" fill="url(#paint9_radial_8009_7246)" style="mix-blend-mode:multiply"/>
<path d="M69.1387 58.365C69.1387 65.7549 63.1639 71.7475 55.7912 71.7475C48.4185 71.7475 42.4434 65.7549 42.4434 58.365C42.4434 50.9752 48.4196 44.9818 55.7912 44.9818C63.1628 44.9818 69.1387 50.9734 69.1387 58.365Z" fill="url(#paint10_radial_8009_7246)" style="mix-blend-mode:multiply"/>
<path d="M76.1819 56.138C76.1819 63.5297 70.2053 69.5223 62.8326 69.5223C55.4599 69.5223 49.4844 63.53 49.4844 56.138C49.4844 48.746 55.462 42.7555 62.8326 42.7555C70.2031 42.7555 76.1819 48.747 76.1819 56.138Z" fill="url(#paint11_radial_8009_7246)" style="mix-blend-mode:multiply"/>
<path d="M64 50.4944C68.8354 53.7542 69.4178 61.3688 65.3046 67.5005C61.1906 73.6358 53.9352 75.9643 49.1016 72.7046C44.2673 69.4448 43.6849 61.8301 47.7999 55.6966C51.912 49.5632 59.1664 47.2346 64.0003 50.4944H64Z" fill="url(#paint12_radial_8009_7246)" style="mix-blend-mode:multiply"/>
<path d="M74.9208 47.2577C79.7562 50.5168 80.3393 58.1311 76.2236 64.2646C72.1104 70.3981 64.8568 72.7266 60.0224 69.4668C55.1888 66.207 54.6057 58.5924 58.7197 52.4589C62.8329 46.3265 70.0879 43.9969 74.9208 47.2574V47.2577Z" fill="url(#paint13_radial_8009_7246)" style="mix-blend-mode:multiply"/>
<path d="M53.2523 61.8551C51.6224 64.3736 46.6032 64.0116 42.0395 61.0439C37.4784 58.0763 35.1002 53.6279 36.7308 51.1094C38.3614 48.5909 43.3809 48.9529 47.9428 51.9206C52.5058 54.8864 54.8811 59.3366 53.2523 61.8551Z" fill="url(#paint14_radial_8009_7246)" style="mix-blend-mode:multiply"/>
</g>
<path d="M25.7759 48.6613L18.8555 58.366L38.7591 67.0628L44.9859 56.1397L25.7759 48.6613Z" fill="url(#paint15_linear_8009_7246)"/>
<path d="M18.8555 58.366V58.5119L38.7591 67.1707V67.0628L18.8555 58.366Z" fill="url(#paint16_linear_8009_7246)"/>
<path d="M38.7598 67.0617V67.1696H38.822L44.9916 56.4676L44.9866 56.1385L38.7598 67.0617Z" fill="url(#paint17_linear_8009_7246)"/>
<path d="M44.9863 56.1395L54.0064 66.7512L76.1932 58.068L68.1315 49.0612L44.9863 56.1395Z" fill="url(#paint18_linear_8009_7246)"/>
<path d="M44.9913 56.4676L53.9829 67.0617L54.0064 66.7502L44.9863 56.1385L44.9913 56.4676Z" fill="url(#paint19_linear_8009_7246)"/>
<path d="M53.9746 67.0619L76.1849 58.3651V58.0673L53.9982 66.7504L53.9746 67.0619Z" fill="url(#paint20_linear_8009_7246)"/>
<path d="M25.7773 48.6616L44.9874 56.14L48.3276 55.1185V42.7335L25.7773 48.6616Z" fill="url(#paint21_linear_8009_7246)"/>
<path d="M48.3278 42.7306L48.3242 42.7324V55.1173L68.1292 49.0605L48.3278 42.7306Z" fill="url(#paint22_linear_8009_7246)"/>
<g opacity="0.8" filter="url(#filter0_f_8009_7246)">
<path d="M84.2659 10L56.2345 32.426L43.6133 12.4219L34.6133 20.9219L32.6133 34.8635L10 19.0599L15.6863 27.2483C17.1212 29.3145 17.8899 31.7701 17.8894 34.2856C17.8889 37.0298 18.8035 39.6957 20.4886 41.8615L25.7788 48.661L44.9888 56.1394L48.329 55.1178L68.134 49.061L73.8681 39.8301C75.8597 36.624 76.6458 32.8139 76.0859 29.0813C75.47 24.9749 76.4848 20.7905 78.9135 17.4225L84.2659 10Z" fill="url(#paint23_linear_8009_7246)"/>
</g>
<path d="M45.5072 82.4205C45.5072 82.4205 45.4557 80.7792 45.3753 78.3166C45.341 77.0842 45.3038 75.6468 45.2638 74.1062C45.228 72.5677 45.1908 70.9245 45.1544 69.2818C45.1261 67.6404 45.0979 65.9976 45.0718 64.4573C45.051 62.9171 45.0328 61.4793 45.0164 60.2491C45.0056 59.0149 44.9963 57.9883 44.9917 57.2693C44.9892 56.5506 44.9863 56.1398 44.9863 56.1398C44.9863 56.1398 45.0017 56.5488 45.0282 57.2693C45.0503 57.988 45.0821 59.0149 45.12 60.2455C45.1519 61.4779 45.1908 62.9153 45.2323 64.4537C45.2663 65.994 45.3027 67.6354 45.3392 69.2782C45.3671 70.921 45.3953 72.5641 45.4225 74.1044C45.4425 75.6429 45.4615 77.0806 45.479 78.3144C45.4965 80.7774 45.5072 82.4202 45.5072 82.4202V82.4205Z" fill="#F5B866"/>
<circle cx="25.7676" cy="37.4215" r="1.82812" fill="white"/>
<circle cx="40.3926" cy="26.9414" r="1.21875" fill="white"/>
<circle cx="33.0801" cy="46.4413" r="1.21875" fill="white"/>
<circle opacity="0.5" cx="17.2363" cy="30.5975" r="1.21875" fill="white"/>
<circle opacity="0.5" cx="62.3301" cy="28.1602" r="1.21875" fill="white"/>
<circle opacity="0.5" cx="48.9238" cy="23.2852" r="1.21875" fill="white"/>
<circle opacity="0.5" cx="42.8301" cy="11.0977" r="1.21875" fill="white"/>
<circle cx="51.3613" cy="35.4725" r="1.21875" fill="white"/>
<circle opacity="0.8" cx="28.2051" cy="18.4102" r="1.21875" fill="white"/>
<circle opacity="0.8" cx="65.9863" cy="45.2225" r="1.21875" fill="white"/>
<path d="M60.5011 15.9727C60.8852 18.1494 62.5908 19.8532 64.7675 20.2374C62.5908 20.6215 60.8852 22.3271 60.5011 24.5039C60.1169 22.3271 58.4131 20.6215 56.2363 20.2374C58.413 19.8532 60.1169 18.1494 60.5011 15.9727Z" fill="white"/>
<path d="M39.7826 35.4725C40.0569 37.0274 41.2752 38.2444 42.8301 38.5188C41.2752 38.7932 40.0569 40.0114 39.7826 41.5663C39.5082 40.0114 38.2912 38.7932 36.7363 38.5188C38.2911 38.2444 39.5082 37.0273 39.7826 35.4725Z" fill="white"/>
<circle cx="60.5019" cy="40.9569" r="3.04686" fill="white"/>
<path d="M64.1152 49.4218L67.8144 35.4725" stroke="url(#paint24_linear_8009_7246)"/>
<path d="M37.6152 52.9219L31.8613 20.8477" stroke="url(#paint25_linear_8009_7246)"/>
<path d="M53.1152 51.4219L58.0644 22.6758" stroke="url(#paint26_linear_8009_7246)"/>
<path d="M29.4238 48.8787L22.7207 31.2069" stroke="url(#paint27_linear_8009_7246)"/>
<defs>
<filter id="filter0_f_8009_7246" x="0" y="0" width="94.2656" height="66.1394" filterUnits="userSpaceOnUse" color-interpolation-filters="sRGB">
<feFlood flood-opacity="0" result="BackgroundImageFix"/>
<feBlend mode="normal" in="SourceGraphic" in2="BackgroundImageFix" result="shape"/>
<feGaussianBlur stdDeviation="0" result="effect1_foregroundBlur_8009_7246"/>
</filter>
<linearGradient id="paint0_linear_8009_7246" x1="25.7126" y1="64.9666" x2="44.9108" y2="66.0713" gradientUnits="userSpaceOnUse">
<stop stop-color="#9E7745"/>
<stop offset="1" stop-color="#8F653D"/>
</linearGradient>
<linearGradient id="paint1_linear_8009_7246" x1="40.9011" y1="54.5932" x2="30.9942" y2="75.1166" gradientUnits="userSpaceOnUse">
<stop stop-color="white"/>
<stop offset="0.41" stop-color="#FDFDFC"/>
<stop offset="0.6" stop-color="#F8F7F5"/>
<stop offset="0.75" stop-color="#EFEDE8"/>
<stop offset="0.87" stop-color="#E2DFD6"/>
<stop offset="0.92" stop-color="#DCD8CD"/>
<stop offset="1" stop-color="#B0ADA5"/>
</linearGradient>
<radialGradient id="paint2_radial_8009_7246" cx="0" cy="0" r="1" gradientTransform="matrix(7.44896 -11.1059 8.75073 5.90012 40.2913 59.4615)" gradientUnits="userSpaceOnUse">
<stop stop-color="#C29A6F"/>
<stop offset="0.09" stop-color="#CBA985"/>
<stop offset="0.3" stop-color="#DDC7B0"/>
<stop offset="0.5" stop-color="#ECDFD2"/>
<stop offset="0.68" stop-color="#F6F1EB"/>
<stop offset="0.86" stop-color="#FCFBF9"/>
<stop offset="1" stop-color="white"/>
</radialGradient>
<radialGradient id="paint3_radial_8009_7246" cx="0" cy="0" r="1" gradientTransform="matrix(5.98095 11.9646 -9.42728 4.73734 35.6566 61.2375)" gradientUnits="userSpaceOnUse">
<stop stop-color="#C29A6F"/>
<stop offset="0.09" stop-color="#CBA985"/>
<stop offset="0.3" stop-color="#DDC7B0"/>
<stop offset="0.5" stop-color="#ECDFD2"/>
<stop offset="0.68" stop-color="#F6F1EB"/>
<stop offset="0.86" stop-color="#FCFBF9"/>
<stop offset="1" stop-color="white"/>
</radialGradient>
<radialGradient id="paint4_radial_8009_7246" cx="0" cy="0" r="1" gradientTransform="matrix(-7.26253 11.2298 -5.15219 -3.34953 44.9243 56.5557)" gradientUnits="userSpaceOnUse">
<stop stop-color="#B8B8B8"/>
<stop offset="0.24" stop-color="#D2D2D2"/>
<stop offset="0.52" stop-color="#EBEBEB"/>
<stop offset="0.78" stop-color="#F9F9F9"/>
<stop offset="1" stop-color="white"/>
</radialGradient>
<radialGradient id="paint5_radial_8009_7246" cx="0" cy="0" r="1" gradientTransform="matrix(5.98095 11.9646 -9.42728 4.73734 30.0406 57.9043)" gradientUnits="userSpaceOnUse">
<stop stop-color="#C29A6F"/>
<stop offset="0.09" stop-color="#CBA985"/>
<stop offset="0.3" stop-color="#DDC7B0"/>
<stop offset="0.5" stop-color="#ECDFD2"/>
<stop offset="0.68" stop-color="#F6F1EB"/>
<stop offset="0.86" stop-color="#FCFBF9"/>
<stop offset="1" stop-color="white"/>
</radialGradient>
<radialGradient id="paint6_radial_8009_7246" cx="0" cy="0" r="1" gradientTransform="matrix(5.98143 11.9655 -9.42804 4.73772 27.2365 59.4482)" gradientUnits="userSpaceOnUse">
<stop stop-color="#C29A6F"/>
<stop offset="0.09" stop-color="#CBA985"/>
<stop offset="0.3" stop-color="#DDC7B0"/>
<stop offset="0.5" stop-color="#ECDFD2"/>
<stop offset="0.68" stop-color="#F6F1EB"/>
<stop offset="0.86" stop-color="#FCFBF9"/>
<stop offset="1" stop-color="white"/>
</radialGradient>
<linearGradient id="paint7_linear_8009_7246" x1="44.9863" y1="65.7411" x2="68.1315" y2="65.7411" gradientUnits="userSpaceOnUse">
<stop stop-color="#BC8E52"/>
<stop offset="1" stop-color="#AC7A49"/>
</linearGradient>
<linearGradient id="paint8_linear_8009_7246" x1="52.2764" y1="53.7295" x2="60.9037" y2="76.4344" gradientUnits="userSpaceOnUse">
<stop stop-color="white"/>
<stop offset="0.41" stop-color="#FDFDFC"/>
<stop offset="0.6" stop-color="#F8F7F5"/>
<stop offset="0.75" stop-color="#EFEDE8"/>
<stop offset="0.87" stop-color="#E2DFD6"/>
<stop offset="0.92" stop-color="#DCD8CD"/>
<stop offset="1" stop-color="#B0ADA5"/>
</linearGradient>
<radialGradient id="paint9_radial_8009_7246" cx="0" cy="0" r="1" gradientUnits="userSpaceOnUse" gradientTransform="translate(52.101 56.1391) scale(13.3479 13.3829)">
<stop stop-color="#C29A6F"/>
<stop offset="0.09" stop-color="#CBA985"/>
<stop offset="0.3" stop-color="#DDC7B0"/>
<stop offset="0.5" stop-color="#ECDFD2"/>
<stop offset="0.68" stop-color="#F6F1EB"/>
<stop offset="0.86" stop-color="#FCFBF9"/>
<stop offset="1" stop-color="white"/>
</radialGradient>
<radialGradient id="paint10_radial_8009_7246" cx="0" cy="0" r="1" gradientUnits="userSpaceOnUse" gradientTransform="translate(55.7912 58.3643) scale(13.3479 13.3829)">
<stop stop-color="#C29A6F"/>
<stop offset="0.09" stop-color="#CBA985"/>
<stop offset="0.3" stop-color="#DDC7B0"/>
<stop offset="0.5" stop-color="#ECDFD2"/>
<stop offset="0.68" stop-color="#F6F1EB"/>
<stop offset="0.86" stop-color="#FCFBF9"/>
<stop offset="1" stop-color="white"/>
</radialGradient>
<radialGradient id="paint11_radial_8009_7246" cx="0" cy="0" r="1" gradientUnits="userSpaceOnUse" gradientTransform="translate(62.8329 56.1391) scale(13.3486 13.3836)">
<stop stop-color="#C29A6F"/>
<stop offset="0.09" stop-color="#CBA985"/>
<stop offset="0.3" stop-color="#DDC7B0"/>
<stop offset="0.5" stop-color="#ECDFD2"/>
<stop offset="0.68" stop-color="#F6F1EB"/>
<stop offset="0.86" stop-color="#FCFBF9"/>
<stop offset="1" stop-color="white"/>
</radialGradient>
<radialGradient id="paint12_radial_8009_7246" cx="0" cy="0" r="1" gradientTransform="matrix(7.44857 -11.1053 8.75026 5.8998 56.5406 61.5908)" gradientUnits="userSpaceOnUse">
<stop stop-color="#C29A6F"/>
<stop offset="0.09" stop-color="#CBA985"/>
<stop offset="0.3" stop-color="#DDC7B0"/>
<stop offset="0.5" stop-color="#ECDFD2"/>
<stop offset="0.68" stop-color="#F6F1EB"/>
<stop offset="0.86" stop-color="#FCFBF9"/>
<stop offset="1" stop-color="white"/>
</radialGradient>
<radialGradient id="paint13_radial_8009_7246" cx="0" cy="0" r="1" gradientTransform="matrix(7.44857 -11.1053 8.75026 5.8998 67.459 58.3515)" gradientUnits="userSpaceOnUse">
<stop stop-color="#C29A6F"/>
<stop offset="0.09" stop-color="#CBA985"/>
<stop offset="0.3" stop-color="#DDC7B0"/>
<stop offset="0.5" stop-color="#ECDFD2"/>
<stop offset="0.68" stop-color="#F6F1EB"/>
<stop offset="0.86" stop-color="#FCFBF9"/>
<stop offset="1" stop-color="white"/>
</radialGradient>
<radialGradient id="paint14_radial_8009_7246" cx="0" cy="0" r="1" gradientTransform="matrix(8.23343 5.35474 -2.95047 4.56047 44.8218 56.356)" gradientUnits="userSpaceOnUse">
<stop stop-color="#AB8050"/>
<stop offset="0.19" stop-color="#C4A684"/>
<stop offset="0.37" stop-color="#D9C6B0"/>
<stop offset="0.55" stop-color="#E9DED2"/>
<stop offset="0.72" stop-color="#F5F0EB"/>
<stop offset="0.87" stop-color="#FCFBF9"/>
<stop offset="1" stop-color="white"/>
</radialGradient>
<linearGradient id="paint15_linear_8009_7246" x1="26.0219" y1="49.1208" x2="39.2892" y2="67.3154" gradientUnits="userSpaceOnUse">
<stop stop-color="#BC8E52"/>
<stop offset="1" stop-color="#AC7A49"/>
</linearGradient>
<linearGradient id="paint16_linear_8009_7246" x1="23.5207" y1="55.4991" x2="34.6212" y2="70.7229" gradientUnits="userSpaceOnUse">
<stop stop-color="#B5814C"/>
<stop offset="1" stop-color="#AD7E4F"/>
</linearGradient>
<linearGradient id="paint17_linear_8009_7246" x1="40.4047" y1="59.6295" x2="43.5161" y2="63.8967" gradientUnits="userSpaceOnUse">
<stop stop-color="#EBAB68"/>
<stop offset="1" stop-color="#FFC78F"/>
</linearGradient>
<linearGradient id="paint18_linear_8009_7246" x1="60.3659" y1="49.8196" x2="60.7372" y2="61.85" gradientUnits="userSpaceOnUse">
<stop stop-color="#CE965B"/>
<stop offset="1" stop-color="#DCA165"/>
</linearGradient>
<linearGradient id="paint19_linear_8009_7246" x1="45.0746" y1="61.3451" x2="53.6058" y2="61.8361" gradientUnits="userSpaceOnUse">
<stop stop-color="#B5814C"/>
<stop offset="1" stop-color="#AD7E4F"/>
</linearGradient>
<linearGradient id="paint20_linear_8009_7246" x1="53.9746" y1="62.5648" x2="76.1849" y2="62.5648" gradientUnits="userSpaceOnUse">
<stop stop-color="#FFCF9C"/>
<stop offset="1" stop-color="#FFE0C1"/>
</linearGradient>
<linearGradient id="paint21_linear_8009_7246" x1="40.8584" y1="59.1801" x2="38.076" y2="49.3752" gradientUnits="userSpaceOnUse">
<stop stop-color="#ABABAB"/>
<stop offset="1" stop-color="#DCDCDC"/>
</linearGradient>
<linearGradient id="paint22_linear_8009_7246" x1="60.2817" y1="43.3661" x2="49.7261" y2="56.295" gradientUnits="userSpaceOnUse">
<stop stop-color="#DCDCDC"/>
<stop offset="1" stop-color="#ABABAB"/>
</linearGradient>
<linearGradient id="paint23_linear_8009_7246" x1="47.1337" y1="10" x2="47.1337" y2="56.1394" gradientUnits="userSpaceOnUse">
<stop stop-color="#FFFCEA" stop-opacity="0"/>
<stop offset="0.503382" stop-color="#FFFCEA" stop-opacity="0.741292"/>
<stop offset="0.82205" stop-color="#FFF8F2"/>
<stop offset="1" stop-color="#FFD7C4"/>
</linearGradient>
<linearGradient id="paint24_linear_8009_7246" x1="67.8144" y1="35.4725" x2="64.1582" y2="48.2694" gradientUnits="userSpaceOnUse">
<stop stop-color="white" stop-opacity="0"/>
<stop offset="1" stop-color="white"/>
</linearGradient>
<linearGradient id="paint25_linear_8009_7246" x1="33.0801" y1="23.2851" x2="38.1152" y2="52.9219" gradientUnits="userSpaceOnUse">
<stop stop-color="white" stop-opacity="0"/>
<stop offset="0.758487" stop-color="white"/>
<stop offset="1" stop-color="#FFEFE7"/>
</linearGradient>
<linearGradient id="paint26_linear_8009_7246" x1="59.8926" y1="29.3789" x2="53.1895" y2="47.6601" gradientUnits="userSpaceOnUse">
<stop stop-color="white" stop-opacity="0"/>
<stop offset="1" stop-color="white"/>
</linearGradient>
<linearGradient id="paint27_linear_8009_7246" x1="22.7207" y1="30.5975" x2="29.4238" y2="48.8787" gradientUnits="userSpaceOnUse">
<stop stop-color="white" stop-opacity="0"/>
<stop offset="1" stop-color="white"/>
</linearGradient>
</defs>
</svg>
