<svg width="28" height="28" viewBox="0 0 28 28" fill="none" xmlns="http://www.w3.org/2000/svg">
<g clip-path="url(#clip0_7844_2529)">
<path d="M14.0007 5.83337C14.7362 10.0013 17.9994 13.2645 22.1673 14C17.9994 14.7356 14.7362 17.9988 14.0007 22.1667C13.2651 17.9988 10.0019 14.7356 5.83398 14C10.0019 13.2645 13.2651 10.0013 14.0007 5.83337Z" fill="#D02F2F"/>
<path d="M5.83299 3.5C6.04313 4.69079 6.97587 5.62285 8.16667 5.83299C6.97587 6.04313 6.04313 6.97587 5.83299 8.16667C5.62285 6.97587 4.69079 6.04313 3.5 5.83299C4.69076 5.62284 5.62284 4.69076 5.83299 3.5Z" fill="#D02F2F"/>
<path d="M6.00133 16C6.54178 19.0621 8.9379 21.4609 12 22.0013C8.93822 22.5419 6.5419 24.9382 6.00133 28C5.46086 24.9379 3.0621 22.5418 0 22.0013C3.06227 21.4609 5.46093 19.0623 6.00133 16Z" fill="#D02F2F"/>
</g>
<defs>
<clipPath id="clip0_7844_2529">
<rect width="28" height="28" fill="white"/>
</clipPath>
</defs>
</svg>
